<svg width="64" height="64" viewBox="0 0 64 64" fill="none" xmlns="http://www.w3.org/2000/svg">
<mask id="mask0_76_147" style="mask-type:luminance" maskUnits="userSpaceOnUse" x="1" y="0" width="63" height="64">
<path d="M1.01465 0.69223H63.7085V63.3861H1.01465V0.69223Z" fill="white"/>
</mask>
<g mask="url(#mask0_76_147)">
<path d="M35.3174 7.21107C37.2741 7.34395 39.1164 8.1813 40.5032 9.5681C41.89 10.9549 42.7274 12.7972 42.8603 14.7539C42.9805 16.5219 43.6764 18.2019 44.8417 19.537C46.1309 21.0144 46.8413 22.9089 46.8413 24.8698C46.8413 26.8308 46.1309 28.7253 44.8417 30.2027C43.6764 31.5378 42.9805 33.2178 42.8603 34.9858C42.7271 36.9423 41.8896 38.7843 40.5028 40.1708C39.1161 41.5573 37.2739 42.3945 35.3174 42.5273C33.5494 42.6476 31.8695 43.3435 30.5344 44.5087C29.0569 45.798 27.1624 46.5084 25.2015 46.5084C23.2406 46.5084 21.3461 45.798 19.8686 44.5087C18.5335 43.3435 16.8536 42.6476 15.0856 42.5273C13.1293 42.3942 11.2875 41.5569 9.90097 40.1704C8.51447 38.7839 7.67717 36.942 7.54403 34.9858C7.42378 33.2178 6.72785 31.5378 5.56264 30.2027C4.27337 28.7253 3.56299 26.8308 3.56299 24.8698C3.56299 22.9089 4.27337 21.0144 5.56264 19.537C6.72785 18.2019 7.42378 16.5219 7.54403 14.7539C7.67656 12.7972 8.5136 10.9547 9.90015 9.56769C11.2867 8.18065 13.1289 7.34298 15.0856 7.20977C16.8536 7.08952 18.5335 6.3936 19.8686 5.22838C21.3461 3.93911 23.2406 3.22873 25.2015 3.22873C27.1624 3.22873 29.0569 3.93911 30.5344 5.22838C31.8695 6.3936 33.5494 7.09083 35.3174 7.21107Z" fill="url(#paint0_radial_76_147)"/>
<path fill-rule="evenodd" clip-rule="evenodd" d="M36.617 46.9825C36.0162 50.6227 37.1668 54.4797 40.0704 57.2865C44.8795 61.9363 52.6784 61.9363 57.4888 57.2865C62.2979 52.6367 62.2979 45.1004 57.4888 40.4506C57.4628 40.4261 57.4367 40.4017 57.4104 40.3774L49.0264 32.2743C48.7942 32.5969 48.5471 32.9085 48.2859 33.2081C47.7774 33.7907 47.4737 34.5238 47.4212 35.2953C47.2249 38.1841 46.0461 40.9187 44.0807 43.0447C42.1152 45.1708 39.4814 46.5604 36.617 46.9825Z" fill="url(#paint1_linear_76_147)"/>
</g>
<defs>
<radialGradient id="paint0_radial_76_147" cx="0" cy="0" r="1" gradientUnits="userSpaceOnUse" gradientTransform="translate(20.0802 20.2594) rotate(64.537) scale(23.8242)">
<stop offset="0.016" stop-color="#FFBB29"/>
<stop offset="0.531" stop-color="#FCB224"/>
<stop offset="0.99" stop-color="#E47100"/>
</radialGradient>
<linearGradient id="paint1_linear_76_147" x1="48.7796" y1="32.0339" x2="48.7796" y2="59.6192" gradientUnits="userSpaceOnUse">
<stop stop-color="#2E7AF5"/>
<stop offset="1" stop-color="#0B57D0"/>
</linearGradient>
</defs>
</svg>
