<svg width="64" height="64" viewBox="0 0 64 64" fill="none" xmlns="http://www.w3.org/2000/svg">
<mask id="mask0_75_19" style="mask-type:luminance" maskUnits="userSpaceOnUse" x="1" y="0" width="63" height="63">
<path d="M1.01465 0.184166H63.7085V62.878H1.01465V0.184166Z" fill="white"/>
</mask>
<g mask="url(#mask0_75_19)">
<path d="M35.3422 6.73959C37.2984 6.87273 39.1403 7.71003 40.5268 9.09653C41.9133 10.483 42.7506 12.3249 42.8837 14.2811C43.004 16.0491 43.6999 17.7291 44.8651 19.0642C46.1544 20.5416 46.8647 22.4362 46.8647 24.3971C46.8647 26.358 46.1544 28.2525 44.8651 29.73C43.6999 31.065 43.004 32.745 42.8837 34.513C42.7506 36.4693 41.9133 38.3111 40.5268 39.6976C39.1403 41.0841 37.2984 41.9214 35.3422 42.0545C33.5742 42.1748 31.8942 42.8707 30.5591 44.0359C29.0817 45.3252 27.1871 46.0356 25.2262 46.0356C23.2653 46.0356 21.3708 45.3252 19.8933 44.0359C18.5582 42.8707 16.8783 42.1748 15.1103 42.0545C13.1538 41.9217 11.3117 41.0845 9.9249 39.698C8.53813 38.3115 7.70064 36.4695 7.56746 34.513C7.44722 32.745 6.75129 31.065 5.58608 29.73C4.2968 28.2525 3.58643 26.358 3.58643 24.3971C3.58643 22.4362 4.2968 20.5416 5.58608 19.0642C6.75129 17.7291 7.44722 16.0491 7.56746 14.2811C7.70034 12.3244 8.53769 10.4821 9.92449 9.09531C11.3113 7.70851 13.1536 6.87116 15.1103 6.73829C16.8783 6.61804 18.5582 5.92211 19.8933 4.7569C21.3708 3.46763 23.2653 2.75725 25.2262 2.75725C27.1871 2.75725 29.0817 3.46763 30.5591 4.7569C31.8942 5.92211 33.5742 6.61935 35.3422 6.73959Z" fill="url(#paint0_radial_75_19)"/>
<path fill-rule="evenodd" clip-rule="evenodd" d="M41.7006 44.6002C41.5308 44.7112 41.4655 44.9267 41.438 45.1278C41.3577 45.6901 41.3577 46.2609 41.438 46.8232C41.4607 46.9615 41.4415 47.1035 41.3828 47.2308C41.3242 47.3581 41.2288 47.465 41.1089 47.5376L39.6696 48.3683C39.5197 48.4548 39.3417 48.4783 39.1745 48.4336L35.0981 47.3417C35.0152 47.3194 34.9287 47.3137 34.8435 47.3248C34.7584 47.336 34.6763 47.3639 34.6019 47.4068C34.5275 47.4498 34.4624 47.507 34.4101 47.5751C34.3579 47.6433 34.3196 47.7211 34.2975 47.8041L33.7228 49.9487C33.6781 50.116 33.7017 50.2942 33.7884 50.4441C33.8752 50.594 34.0178 50.7034 34.1851 50.7481L36.8953 51.4743C37.0624 51.5193 37.2048 51.6287 37.2912 51.7786C37.3777 51.9284 37.4011 52.1065 37.3564 52.2736L36.6302 54.9838C36.5855 55.1511 36.6092 55.3293 36.6959 55.4792C36.7826 55.6291 36.9253 55.7385 37.0926 55.7832L39.2372 56.3579C39.4044 56.4026 39.5824 56.3791 39.7323 56.2927C39.8821 56.2063 39.9916 56.0639 40.0366 55.8968L41.1298 51.8191C41.1748 51.6521 41.2843 51.5097 41.4341 51.4233L42.8852 50.5848C43.1334 50.4411 43.4416 50.4803 43.6663 50.654C44.1064 50.9975 44.5962 51.281 45.1213 51.49C45.2533 51.5391 45.3674 51.6268 45.4489 51.7416C45.5304 51.8564 45.5755 51.9931 45.5784 52.1339V53.8162C45.5781 53.9892 45.509 54.155 45.3865 54.2772L42.402 57.2617C42.2795 57.3842 42.2108 57.5503 42.2108 57.7234C42.2108 57.8966 42.2795 58.0627 42.402 58.1851L43.9719 59.7551C44.0944 59.8775 44.2605 59.9463 44.4336 59.9463C44.6068 59.9463 44.7729 59.8775 44.8953 59.7551L46.8793 57.7724C47.0018 57.65 47.1679 57.5812 47.3411 57.5812C47.5142 57.5812 47.6803 57.65 47.8028 57.7724L49.7868 59.7551C49.9092 59.8775 50.0753 59.9463 50.2485 59.9463C50.4217 59.9463 50.5877 59.8775 50.7102 59.7551L52.2802 58.1851C52.4026 58.0627 52.4714 57.8966 52.4714 57.7234C52.4714 57.5503 52.4026 57.3842 52.2802 57.2617L49.2957 54.2772C49.1731 54.155 49.1041 53.9892 49.1037 53.8162V52.1143C49.1037 51.8282 49.2904 51.5788 49.5543 51.473C50.0685 51.2636 50.5508 50.9831 50.9871 50.6397C51.0956 50.5509 51.2283 50.4966 51.3679 50.4838C51.5076 50.471 51.6479 50.5002 51.7708 50.5678L53.248 51.422C53.3979 51.5084 53.5073 51.6508 53.5523 51.8178L54.6456 55.8955C54.6905 56.0626 54.8 56.2049 54.9499 56.2914C55.0997 56.3778 55.2778 56.4013 55.4449 56.3566L57.5896 55.7819C57.7569 55.7372 57.8995 55.6278 57.9863 55.4779C58.073 55.328 58.0966 55.1498 58.0519 54.9825L57.3257 52.2723C57.281 52.1052 57.3045 51.9271 57.3909 51.7773C57.4773 51.6274 57.6197 51.518 57.7868 51.473L60.497 50.7468C60.664 50.7018 60.8064 50.5923 60.8929 50.4425C60.9793 50.2926 61.0028 50.1146 60.958 49.9474L60.3833 47.8028C60.3386 47.6355 60.2293 47.4928 60.0794 47.4061C59.9295 47.3194 59.7513 47.2957 59.584 47.3404L55.5076 48.4336C55.4246 48.4559 55.3381 48.4616 55.2529 48.4504C55.1678 48.4392 55.0856 48.4113 55.0113 48.3683L53.5301 47.5128C53.4103 47.4404 53.3147 47.3338 53.2559 47.2068C53.197 47.0797 53.1774 46.9379 53.1997 46.7997C53.2769 46.2517 53.2778 45.6956 53.2023 45.1474C53.1805 45.0097 53.2001 44.8686 53.2587 44.7421C53.3173 44.6155 53.4123 44.5093 53.5314 44.4369L55.0113 43.5827C55.0856 43.5397 55.1678 43.5118 55.2529 43.5006C55.3381 43.4894 55.4246 43.4951 55.5076 43.5174L59.584 44.6093C59.7511 44.654 59.9292 44.6306 60.079 44.5441C60.2289 44.4577 60.3384 44.3153 60.3833 44.1482L60.958 42.0036C60.9804 41.9207 60.9862 41.8343 60.9751 41.7492C60.964 41.6641 60.9362 41.5821 60.8934 41.5077C60.8506 41.4334 60.7936 41.3682 60.7255 41.3159C60.6575 41.2636 60.5798 41.2252 60.497 41.2029L57.7868 40.4767C57.6197 40.4317 57.4773 40.3223 57.3909 40.1724C57.3045 40.0226 57.281 39.8445 57.3257 39.6774L58.0519 36.9672C58.0966 36.7999 58.073 36.6217 57.9863 36.4718C57.8995 36.3219 57.7569 36.2125 57.5896 36.1678L55.4449 35.5931C55.2776 35.5485 55.0994 35.5721 54.9495 35.6588C54.7996 35.7455 54.6903 35.8882 54.6456 36.0555L53.551 40.1319C53.5289 40.2149 53.4906 40.2926 53.4384 40.3607C53.3862 40.4289 53.321 40.486 53.2467 40.529L51.7786 41.378C51.6556 41.4454 51.5152 41.4744 51.3756 41.4614C51.2359 41.4484 51.1033 41.3938 50.9949 41.3048C50.5562 40.9584 50.0708 40.6756 49.553 40.465C49.4227 40.4149 49.3102 40.3272 49.23 40.213C49.1497 40.0988 49.1053 39.9632 49.1024 39.8237V38.1375C49.1024 38.0516 49.1194 37.9665 49.1523 37.8872C49.1852 37.8078 49.2335 37.7357 49.2944 37.6751L52.2789 34.6906C52.4013 34.5681 52.4701 34.4021 52.4701 34.2289C52.4701 34.0557 52.4013 33.8896 52.2789 33.7672L50.7089 32.1972C50.5864 32.0748 50.4204 32.006 50.2472 32.006C50.074 32.006 49.9079 32.0748 49.7855 32.1972L47.8002 34.1812C47.6526 34.3288 47.4776 34.479 47.4553 34.688C47.4506 34.7328 47.4467 34.7776 47.4436 34.8225C47.3108 36.7865 46.7225 38.6926 45.7252 40.3897C44.7279 42.0869 43.3491 43.5284 41.698 44.6002H41.7006ZM44.9045 45.969C44.9045 45.3288 45.1588 44.7149 45.6115 44.2622C46.0641 43.8096 46.678 43.5553 47.3182 43.5553C47.9584 43.5553 48.5723 43.8096 49.025 44.2622C49.4776 44.7149 49.7319 45.3288 49.7319 45.969C49.7319 46.6091 49.4776 47.2231 49.025 47.6757C48.5723 48.1284 47.9584 48.3827 47.3182 48.3827C46.678 48.3827 46.0641 48.1284 45.6115 47.6757C45.1588 47.2231 44.9045 46.6091 44.9045 45.969Z" fill="#757575"/>
</g>
<defs>
<radialGradient id="paint0_radial_75_19" cx="0" cy="0" r="1" gradientUnits="userSpaceOnUse" gradientTransform="translate(20.1048 19.7867) rotate(64.537) scale(23.8242)">
<stop offset="0.016" stop-color="#FFBB29"/>
<stop offset="0.531" stop-color="#FCB224"/>
<stop offset="0.99" stop-color="#E47100"/>
</radialGradient>
</defs>
</svg>
