<svg width="64" height="64" viewBox="0 0 64 64" fill="none" xmlns="http://www.w3.org/2000/svg">
<path fill-rule="evenodd" clip-rule="evenodd" d="M62.6668 31.3333C62.6668 42.4773 53.7842 51.5613 42.6668 51.984V52H14.6668V51.9973H14.4762C7.2175 51.9987 1.3335 46.156 1.3335 38.9467C1.3335 31.7373 7.2175 25.8933 14.4762 25.8933C16.9962 25.8933 19.3482 26.5973 21.3482 27.8187C23.0282 18.0787 31.5708 10.6667 41.8575 10.6667C53.3508 10.6667 62.6668 19.92 62.6668 31.3333Z" fill="url(#paint0_radial_75_60)"/>
<mask id="mask0_75_60" style="mask-type:luminance" maskUnits="userSpaceOnUse" x="1" y="10" width="62" height="42">
<path fill-rule="evenodd" clip-rule="evenodd" d="M62.6668 31.3333C62.6668 42.4773 53.7842 51.5613 42.6668 51.984V52H14.6668V51.9973H14.4762C7.2175 51.9987 1.3335 46.156 1.3335 38.9467C1.3335 31.7373 7.2175 25.8933 14.4762 25.8933C16.9962 25.8933 19.3482 26.5973 21.3482 27.8187C23.0282 18.0787 31.5708 10.6667 41.8575 10.6667C53.3508 10.6667 62.6668 19.92 62.6668 31.3333Z" fill="white"/>
</mask>
<g mask="url(#mask0_75_60)">
<path d="M42.6667 51.984L42.616 50.6507L41.3333 50.7V51.984H42.6667ZM42.6667 52V53.3333H44V52H42.6667ZM14.6667 52H13.3333V53.3333H14.6667V52ZM14.6667 51.9973H16V50.6453L14.648 50.664L14.6667 51.9973ZM21.348 27.8187L20.6533 28.956L22.328 29.9787L22.6613 28.0453L21.348 27.8187ZM42.7173 53.316C54.54 52.8667 64 43.2053 64 31.3333H61.3333C61.3333 41.7493 53.028 50.2547 42.616 50.6507L42.7173 53.316ZM44 52V51.984H41.3333V52H44ZM14.6667 53.3333H42.6667V50.6667H14.6667V53.3333ZM13.3333 51.9973V52H16V51.9973H13.3333ZM14.648 50.664H14.4747V53.3307H14.6853L14.648 50.664ZM14.4747 50.664C7.94667 50.6653 2.66667 45.412 2.66667 38.9467H0C0 46.9 6.48933 53.332 14.476 53.332V50.6653L14.4747 50.664ZM2.66667 38.9467C2.66667 32.4827 7.94533 27.2267 14.476 27.2267V24.56C6.48933 24.56 0 30.992 0 38.9467H2.66667ZM14.476 27.2267C16.7427 27.2267 18.8573 27.86 20.6533 28.956L22.0427 26.68C19.764 25.2894 17.1454 24.5558 14.476 24.56V27.2267ZM41.8573 9.33333C30.9187 9.33333 21.824 17.2173 20.0333 27.592L22.6613 28.0453C24.232 18.94 32.224 12 41.8573 12V9.33333ZM64 31.3333C64 19.1733 54.0773 9.33333 41.8573 9.33333V12C52.6227 12 61.3333 20.664 61.3333 31.3333H64Z" fill="url(#paint1_linear_75_60)"/>
</g>
<mask id="mask1_75_60" style="mask-type:luminance" maskUnits="userSpaceOnUse" x="1" y="10" width="62" height="42">
<path fill-rule="evenodd" clip-rule="evenodd" d="M62.6668 31.3333C62.6668 42.4773 53.7842 51.5613 42.6668 51.984V52H14.6668V51.9973H14.4762C7.2175 51.9987 1.3335 46.156 1.3335 38.9467C1.3335 31.7373 7.2175 25.8933 14.4762 25.8933C16.9962 25.8933 19.3482 26.5973 21.3482 27.8187C23.0282 18.0787 31.5708 10.6667 41.8575 10.6667C53.3508 10.6667 62.6668 19.92 62.6668 31.3333Z" fill="white"/>
</mask>
<g mask="url(#mask1_75_60)">
<path d="M42.6667 51.984L42.616 50.6507L41.3333 50.7V51.984H42.6667ZM42.6667 52V53.3333H44V52H42.6667ZM14.6667 52H13.3333V53.3333H14.6667V52ZM14.6667 51.9973H16V50.6453L14.648 50.664L14.6667 51.9973ZM21.348 27.8187L20.6533 28.956L22.328 29.9787L22.6613 28.0453L21.348 27.8187ZM42.7173 53.316C54.54 52.8667 64 43.2053 64 31.3333H61.3333C61.3333 41.7493 53.028 50.2547 42.616 50.6507L42.7173 53.316ZM44 52V51.984H41.3333V52H44ZM14.6667 53.3333H42.6667V50.6667H14.6667V53.3333ZM13.3333 51.9973V52H16V51.9973H13.3333ZM14.648 50.664H14.4747V53.3307H14.6853L14.648 50.664ZM14.4747 50.664C7.94667 50.6653 2.66667 45.412 2.66667 38.9467H0C0 46.9 6.48933 53.332 14.476 53.332V50.6653L14.4747 50.664ZM2.66667 38.9467C2.66667 32.4827 7.94533 27.2267 14.476 27.2267V24.56C6.48933 24.56 0 30.992 0 38.9467H2.66667ZM14.476 27.2267C16.7427 27.2267 18.8573 27.86 20.6533 28.956L22.0427 26.68C19.764 25.2894 17.1454 24.5558 14.476 24.56V27.2267ZM41.8573 9.33333C30.9187 9.33333 21.824 17.2173 20.0333 27.592L22.6613 28.0453C24.232 18.94 32.224 12 41.8573 12V9.33333ZM64 31.3333C64 19.1733 54.0773 9.33333 41.8573 9.33333V12C52.6227 12 61.3333 20.664 61.3333 31.3333H64Z" fill="url(#paint2_linear_75_60)"/>
</g>
<defs>
<radialGradient id="paint0_radial_75_60" cx="0" cy="0" r="1" gradientUnits="userSpaceOnUse" gradientTransform="translate(52.4441 48.4838) rotate(-134.75) scale(48.0968 115.701)">
<stop stop-color="#B4B4B4"/>
<stop offset="0.298" stop-color="#B4B4B4"/>
<stop offset="1" stop-color="#E3E3E3"/>
</radialGradient>
<linearGradient id="paint1_linear_75_60" x1="40" y1="30" x2="49.3333" y2="50" gradientUnits="userSpaceOnUse">
<stop stop-color="#80868B" stop-opacity="0"/>
<stop offset="1" stop-color="#80868B"/>
</linearGradient>
<linearGradient id="paint2_linear_75_60" x1="55.3333" y1="10.6667" x2="6.66667" y2="29.3333" gradientUnits="userSpaceOnUse">
<stop stop-color="#81878C"/>
<stop offset="1" stop-color="#C3C5C6" stop-opacity="0"/>
</linearGradient>
</defs>
</svg>
