<svg width="64" height="64" viewBox="0 0 64 64" fill="none" xmlns="http://www.w3.org/2000/svg">
<path fill-rule="evenodd" clip-rule="evenodd" d="M46.6024 39.0478C46.6351 39.0295 46.6677 39.0726 46.6416 39.0988C46.581 39.1595 46.533 39.2316 46.5003 39.311C46.4675 39.3903 46.4508 39.4753 46.4509 39.5611V41.246C46.4509 41.5334 46.6364 41.7815 46.9015 41.8886C47.4227 42.1002 47.9073 42.385 48.3422 42.7272C48.5668 42.9048 48.8777 42.944 49.1259 42.8003L50.5939 41.9513C50.7438 41.8649 50.8532 41.7226 50.8983 41.5556L51.9902 37.4805C52.0123 37.3975 52.0506 37.3197 52.1028 37.2515C52.1551 37.1834 52.2202 37.1262 52.2946 37.0832C52.369 37.0403 52.4511 37.0124 52.5362 37.0012C52.6214 36.9901 52.7079 36.9958 52.7908 37.0181L54.9355 37.5928C55.0184 37.6151 55.096 37.6535 55.164 37.7058C55.2321 37.7581 55.2891 37.8232 55.3319 37.8976C55.3748 37.972 55.4025 38.054 55.4136 38.1391C55.4247 38.2242 55.4189 38.3106 55.3966 38.3935L54.6717 41.1024C54.627 41.2695 54.6504 41.4475 54.7368 41.5974C54.8233 41.7473 54.9657 41.8567 55.1327 41.9017L57.8416 42.6279C58.0089 42.6726 58.1516 42.7819 58.2383 42.9318C58.325 43.0817 58.3486 43.2599 58.304 43.4273L57.7293 45.5719C57.7072 45.6549 57.6689 45.7327 57.6167 45.8009C57.5644 45.869 57.4992 45.9262 57.4249 45.9692C57.3505 46.0121 57.2684 46.04 57.1832 46.0511C57.0981 46.0623 57.0116 46.0566 56.9286 46.0343L52.8535 44.9411C52.7706 44.9188 52.684 44.9131 52.5989 44.9243C52.5137 44.9355 52.4316 44.9634 52.3572 45.0064L50.8787 45.8606C50.7593 45.9328 50.6641 46.0389 50.6052 46.1655C50.5464 46.292 50.5265 46.4332 50.5482 46.5711C50.6242 47.1197 50.6237 47.6762 50.5469 48.2246C50.5248 48.3626 50.5443 48.504 50.603 48.6308C50.6616 48.7575 50.7567 48.864 50.8761 48.9365L52.3572 49.792C52.4316 49.835 52.5137 49.8629 52.5989 49.8741C52.684 49.8853 52.7706 49.8796 52.8535 49.8573L56.9286 48.7641C57.0116 48.7418 57.0981 48.736 57.1832 48.7472C57.2684 48.7584 57.3505 48.7862 57.4249 48.8292C57.4992 48.8721 57.5644 48.9293 57.6167 48.9975C57.6689 49.0657 57.7072 49.1435 57.7293 49.2264L58.304 51.3711C58.3486 51.5384 58.325 51.7166 58.2383 51.8665C58.1516 52.0164 58.0089 52.1257 57.8416 52.1704L55.1327 52.8966C54.9657 52.9416 54.8233 53.0511 54.7368 53.2009C54.6504 53.3508 54.627 53.5289 54.6717 53.696L55.3979 56.4062C55.4425 56.5735 55.4189 56.7517 55.3322 56.9016C55.2455 57.0515 55.1028 57.1608 54.9355 57.2055L52.7908 57.7802C52.6235 57.8249 52.4453 57.8013 52.2954 57.7146C52.1455 57.6279 52.0362 57.4852 51.9915 57.3179L50.8983 53.2428C50.8761 53.1598 50.8379 53.0821 50.7856 53.0139C50.7334 52.9458 50.6683 52.8886 50.5939 52.8457L49.1167 51.9928C48.9938 51.9252 48.8535 51.8959 48.7139 51.9087C48.5742 51.9215 48.4416 51.9758 48.333 52.0646C47.9007 52.4042 47.4188 52.6864 46.9015 52.8966C46.7712 52.9467 46.6588 53.0344 46.5785 53.1486C46.4983 53.2629 46.4538 53.3984 46.4509 53.538V55.2372C46.4508 55.323 46.4675 55.408 46.5003 55.4874C46.533 55.5667 46.581 55.6388 46.6416 55.6996L49.6261 58.6828C49.6869 58.7434 49.7352 58.8155 49.7681 58.8948C49.801 58.9742 49.818 59.0592 49.818 59.1451C49.818 59.231 49.801 59.3161 49.7681 59.3954C49.7352 59.4748 49.6869 59.5468 49.6261 59.6075L48.0561 61.1775C47.9337 61.2999 47.7676 61.3687 47.5944 61.3687C47.4213 61.3687 47.2552 61.2999 47.1327 61.1775L45.1487 59.1935C45.0263 59.071 44.8602 59.0023 44.687 59.0023C44.5138 59.0023 44.3478 59.071 44.2253 59.1935L42.2426 61.1775C42.1201 61.2999 41.9541 61.3687 41.7809 61.3687C41.6077 61.3687 41.4416 61.2999 41.3192 61.1775L39.7492 59.6075C39.6884 59.5468 39.6401 59.4748 39.6072 59.3954C39.5743 59.3161 39.5574 59.231 39.5574 59.1451C39.5574 59.0592 39.5743 58.9742 39.6072 58.8948C39.6401 58.8155 39.6884 58.7434 39.7492 58.6828L42.7324 55.6996C42.7932 55.6389 42.8415 55.5669 42.8745 55.4875C42.9074 55.4082 42.9244 55.3231 42.9244 55.2372V53.5562C42.9212 53.4157 42.876 53.2793 42.7945 53.1648C42.713 53.0502 42.599 52.9627 42.4673 52.9136C41.9456 52.7052 41.4561 52.4237 41.0135 52.0777C40.9051 51.9897 40.7729 51.9359 40.6338 51.9233C40.4946 51.9108 40.3549 51.94 40.2325 52.0072L38.7814 52.8457C38.6315 52.9321 38.5221 53.0744 38.477 53.2415L37.3838 57.3179C37.3391 57.4852 37.2298 57.6279 37.0799 57.7146C36.93 57.8013 36.7518 57.8249 36.5845 57.7802L34.4398 57.2055C34.357 57.1833 34.2793 57.1449 34.2113 57.0926C34.1433 57.0403 34.0862 56.9751 34.0434 56.9008C34.0006 56.8264 33.9728 56.7443 33.9617 56.6593C33.9506 56.5742 33.9564 56.4877 33.9788 56.4049L34.7037 53.696C34.7484 53.5289 34.7249 53.3508 34.6385 53.2009C34.552 53.0511 34.4097 52.9416 34.2426 52.8966L31.5324 52.1704C31.3653 52.1255 31.223 52.016 31.1365 51.8661C31.0501 51.7163 31.0266 51.5382 31.0713 51.3711L31.646 49.2251C31.691 49.0581 31.8005 48.9157 31.9503 48.8293C32.1002 48.7428 32.2782 48.7194 32.4454 48.7641L36.5218 49.856C36.6047 49.8783 36.6913 49.884 36.7765 49.8728C36.8616 49.8616 36.9437 49.8337 37.0181 49.7907L38.4562 48.96C38.7043 48.8163 38.8271 48.529 38.7853 48.2455C38.7049 47.6833 38.7049 47.1125 38.7853 46.5502C38.8078 46.4117 38.7884 46.2697 38.7295 46.1424C38.6706 46.015 38.5749 45.9082 38.4548 45.8357L37.0181 45.0064C36.9437 44.9634 36.8616 44.9355 36.7765 44.9243C36.6913 44.9131 36.6047 44.9188 36.5218 44.9411L32.4467 46.033C32.3638 46.0553 32.2774 46.0611 32.1923 46.05C32.1072 46.0389 32.0252 46.0112 31.9508 45.9683C31.8765 45.9255 31.8113 45.8685 31.759 45.8005C31.7067 45.7324 31.6683 45.6548 31.646 45.5719L31.0713 43.4273C31.049 43.3444 31.0432 43.258 31.0543 43.1729C31.0654 43.0878 31.0931 43.0057 31.136 42.9314C31.1788 42.857 31.2358 42.7918 31.3038 42.7396C31.3719 42.6873 31.4495 42.6489 31.5324 42.6266L34.2426 41.9017C34.5064 41.8299 34.7572 41.6614 35.0315 41.6614H36.9659L37.2715 41.6431C37.5066 41.634 37.7391 41.6209 37.9716 41.6039C38.2642 41.5817 38.5267 41.8051 38.7814 41.9526L40.2233 42.7846C40.4715 42.9283 40.7797 42.8904 41.0044 42.7141C41.4494 42.365 41.942 42.0813 42.4673 41.8717C42.599 41.8226 42.713 41.7351 42.7945 41.6205C42.876 41.506 42.9212 41.3696 42.9244 41.2291V40.8411C42.9244 40.7223 43.0015 40.6165 43.1138 40.5799C44.3215 40.1771 45.4885 39.6643 46.6024 39.0478ZM42.2517 47.3926C42.2443 47.071 42.3011 46.7512 42.419 46.4519C42.537 46.1525 42.7135 45.8798 42.9383 45.6497C43.1631 45.4196 43.4317 45.2368 43.7282 45.1119C44.0247 44.9871 44.3431 44.9228 44.6648 44.9228C44.9865 44.9228 45.305 44.9871 45.6014 45.1119C45.8979 45.2368 46.1665 45.4196 46.3913 45.6497C46.6161 45.8798 46.7927 46.1525 46.9106 46.4519C47.0285 46.7512 47.0853 47.071 47.0779 47.3926C47.0632 48.0229 46.8025 48.6224 46.3516 49.063C45.9007 49.5036 45.2952 49.7502 44.6648 49.7502C44.0344 49.7502 43.429 49.5036 42.978 49.063C42.5271 48.6224 42.2664 48.0229 42.2517 47.3926Z" fill="#757575"/>
<path d="M36.804 36.4238L36.4736 36.4369H14.327C14.2791 36.4351 14.2312 36.4346 14.1833 36.4356C8.71064 36.4356 4.28027 32.03 4.28027 26.6044C4.28027 21.1788 8.70933 16.7732 14.1833 16.7732C16.0837 16.7732 17.8574 17.3035 19.3634 18.223L20.1836 18.7233L20.3469 17.7763C21.6439 10.2661 28.2359 4.54139 36.1797 4.54139C45.0548 4.54139 52.2424 11.6859 52.2424 20.4891C52.2424 29.0834 45.3905 36.0973 36.804 36.4238Z" fill="url(#paint0_radial_75_80)"/>
<path d="M36.804 36.4238L36.4736 36.4369H14.327C14.2791 36.4351 14.2312 36.4346 14.1833 36.4356C8.71064 36.4356 4.28027 32.03 4.28027 26.6044C4.28027 21.1788 8.70933 16.7732 14.1833 16.7732C16.0837 16.7732 17.8574 17.3035 19.3634 18.223L20.1836 18.7233L20.3469 17.7763C21.6439 10.2661 28.2359 4.54139 36.1797 4.54139C45.0548 4.54139 52.2424 11.6859 52.2424 20.4891C52.2424 29.0834 45.3905 36.0973 36.804 36.4238Z" stroke="url(#paint1_linear_75_80)"/>
<path d="M36.804 36.4238L36.4736 36.4369H14.327C14.2791 36.4351 14.2312 36.4346 14.1833 36.4356C8.71064 36.4356 4.28027 32.03 4.28027 26.6044C4.28027 21.1788 8.70933 16.7732 14.1833 16.7732C16.0837 16.7732 17.8574 17.3035 19.3634 18.223L20.1836 18.7233L20.3469 17.7763C21.6439 10.2661 28.2359 4.54139 36.1797 4.54139C45.0548 4.54139 52.2424 11.6859 52.2424 20.4891C52.2424 29.0834 45.3905 36.0973 36.804 36.4238Z" stroke="url(#paint2_linear_75_80)"/>
<defs>
<radialGradient id="paint0_radial_75_80" cx="0" cy="0" r="1" gradientUnits="userSpaceOnUse" gradientTransform="translate(44.6826 34.2661) rotate(-134.75) scale(38.6346 92.9388)">
<stop stop-color="#B4B4B4"/>
<stop offset="0.298" stop-color="#B4B4B4"/>
<stop offset="1" stop-color="#E3E3E3"/>
</radialGradient>
<linearGradient id="paint1_linear_75_80" x1="34.6868" y1="19.4181" x2="42.1839" y2="35.4834" gradientUnits="userSpaceOnUse">
<stop stop-color="#80868B" stop-opacity="0"/>
<stop offset="1" stop-color="#80868B"/>
</linearGradient>
<linearGradient id="paint2_linear_75_80" x1="47.0035" y1="3.88833" x2="7.9113" y2="18.8826" gradientUnits="userSpaceOnUse">
<stop stop-color="#81878C"/>
<stop offset="1" stop-color="#C3C5C6" stop-opacity="0"/>
</linearGradient>
</defs>
</svg>
