<svg width="64" height="64" viewBox="0 0 64 64" fill="none" xmlns="http://www.w3.org/2000/svg">
<path fill-rule="evenodd" clip-rule="evenodd" d="M53.3956 32.7549C53.7391 32.2847 54.3465 32.0549 54.8663 32.3161C55.8092 32.7889 56.6123 33.4995 57.1965 34.3777C57.7806 35.256 58.1254 36.2714 58.1969 37.3238C58.2864 38.6451 58.8062 39.9007 59.6768 40.8986C60.6403 42.0026 61.1712 43.4183 61.1712 44.8836C61.1712 46.3489 60.6403 47.7646 59.6768 48.8686C58.8057 49.8663 58.2854 51.122 58.1956 52.4434C58.0964 53.9055 57.4707 55.282 56.4345 56.3182C55.3983 57.3544 54.0218 57.9801 52.5597 58.0794C51.2383 58.1692 49.9826 58.6894 48.9849 59.5605C47.8809 60.524 46.4652 61.0549 44.9999 61.0549C43.5346 61.0549 42.1189 60.524 41.0149 59.5605C40.0171 58.6894 38.7615 58.1692 37.44 58.0794C35.9778 57.9804 34.6009 57.3549 33.5644 56.3186C32.528 55.2824 31.9021 53.9057 31.8028 52.4434C31.7134 51.1221 31.1936 49.8665 30.323 48.8686C29.5031 47.9289 28.993 46.7592 28.8621 45.519C28.7312 44.2788 28.9859 43.0285 29.5916 41.9383C29.7966 41.5687 30.2015 41.3688 30.6234 41.3688H36.9659L37.2716 41.3505C40.4344 41.2319 43.529 40.3968 46.3221 38.908C49.1152 37.4193 51.5339 35.3158 53.3956 32.7563V32.7549Z" fill="url(#paint0_radial_75_75)"/>
<path d="M36.8027 36.1326L36.4736 36.1456H14.327L14.2721 36.1443H14.1833C8.71064 36.1443 4.28027 31.7375 4.28027 26.3118C4.28027 20.8862 8.70934 16.4807 14.1833 16.4807C16.0837 16.4807 17.8574 17.0109 19.3634 17.9304L20.1836 18.4307L20.3469 17.4838C21.6426 9.97225 28.2359 4.24882 36.1771 4.24882C45.0535 4.24882 52.2411 11.3933 52.2411 20.1966C52.2411 28.7922 45.3879 35.8073 36.8027 36.1326Z" fill="url(#paint1_radial_75_75)"/>
<path d="M36.8027 36.1326L36.4736 36.1456H14.327L14.2721 36.1443H14.1833C8.71064 36.1443 4.28027 31.7375 4.28027 26.3118C4.28027 20.8862 8.70934 16.4807 14.1833 16.4807C16.0837 16.4807 17.8574 17.0109 19.3634 17.9304L20.1836 18.4307L20.3469 17.4838C21.6426 9.97225 28.2359 4.24882 36.1771 4.24882C45.0535 4.24882 52.2411 11.3933 52.2411 20.1966C52.2411 28.7922 45.3879 35.8073 36.8027 36.1326Z" stroke="url(#paint2_linear_75_75)"/>
<path d="M36.8027 36.1326L36.4736 36.1456H14.327L14.2721 36.1443H14.1833C8.71064 36.1443 4.28027 31.7375 4.28027 26.3118C4.28027 20.8862 8.70934 16.4807 14.1833 16.4807C16.0837 16.4807 17.8574 17.0109 19.3634 17.9304L20.1836 18.4307L20.3469 17.4838C21.6426 9.97225 28.2359 4.24882 36.1771 4.24882C45.0535 4.24882 52.2411 11.3933 52.2411 20.1966C52.2411 28.7922 45.3879 35.8073 36.8027 36.1326Z" stroke="url(#paint3_linear_75_75)"/>
<defs>
<radialGradient id="paint0_radial_75_75" cx="0" cy="0" r="1" gradientUnits="userSpaceOnUse" gradientTransform="translate(41.1726 41.4397) rotate(64.537) scale(17.8041 17.8041)">
<stop offset="0.016" stop-color="#FFBB29"/>
<stop offset="0.531" stop-color="#FCB224"/>
<stop offset="0.99" stop-color="#E47100"/>
</radialGradient>
<radialGradient id="paint1_radial_75_75" cx="0" cy="0" r="1" gradientUnits="userSpaceOnUse" gradientTransform="translate(44.6826 33.9722) rotate(-134.75) scale(38.6346 92.9388)">
<stop stop-color="#B4B4B4"/>
<stop offset="0.298" stop-color="#B4B4B4"/>
<stop offset="1" stop-color="#E3E3E3"/>
</radialGradient>
<linearGradient id="paint2_linear_75_75" x1="34.6868" y1="19.1256" x2="42.1839" y2="35.1909" gradientUnits="userSpaceOnUse">
<stop stop-color="#80868B" stop-opacity="0"/>
<stop offset="1" stop-color="#80868B"/>
</linearGradient>
<linearGradient id="paint3_linear_75_75" x1="47.0022" y1="3.59576" x2="7.91129" y2="18.59" gradientUnits="userSpaceOnUse">
<stop stop-color="#81878C"/>
<stop offset="1" stop-color="#C3C5C6" stop-opacity="0"/>
</linearGradient>
</defs>
</svg>
