<svg width="64" height="64" viewBox="0 0 64 64" fill="none" xmlns="http://www.w3.org/2000/svg">
<path fill-rule="evenodd" clip-rule="evenodd" d="M39.7137 40.6008C35.2664 45.2715 35.3865 52.5427 40.0729 57.0723C44.8821 61.7208 52.6796 61.7208 57.4887 57.0723C62.2979 52.4238 62.2979 44.8888 57.4887 40.2403C57.4632 40.2158 57.4375 40.1914 57.4117 40.1672L51.5198 34.4725C48.3584 37.7493 44.2129 39.9016 39.7137 40.6008Z" fill="url(#paint0_linear_75_70)"/>
<path d="M36.8001 35.6219L36.4697 35.6349H14.2721L14.182 35.6336C8.70933 35.6336 4.28027 31.2281 4.28027 25.8024C4.28027 20.3781 8.70803 15.9726 14.182 15.9726C16.0824 15.9726 17.8561 16.5029 19.3621 17.4224L20.1823 17.9239L20.3456 16.9757C21.6413 9.46547 28.2346 3.74204 36.1758 3.74204C45.0496 3.74204 52.2359 10.8865 52.2359 19.6885C52.2359 28.2828 45.3839 35.2953 36.8001 35.6219Z" fill="url(#paint1_radial_75_70)"/>
<path d="M36.8001 35.6219L36.4697 35.6349H14.2721L14.182 35.6336C8.70933 35.6336 4.28027 31.2281 4.28027 25.8024C4.28027 20.3781 8.70803 15.9726 14.182 15.9726C16.0824 15.9726 17.8561 16.5029 19.3621 17.4224L20.1823 17.9239L20.3456 16.9757C21.6413 9.46547 28.2346 3.74204 36.1758 3.74204C45.0496 3.74204 52.2359 10.8865 52.2359 19.6885C52.2359 28.2828 45.3839 35.2953 36.8001 35.6219Z" stroke="url(#paint2_linear_75_70)"/>
<path d="M36.8001 35.6219L36.4697 35.6349H14.2721L14.182 35.6336C8.70933 35.6336 4.28027 31.2281 4.28027 25.8024C4.28027 20.3781 8.70803 15.9726 14.182 15.9726C16.0824 15.9726 17.8561 16.5029 19.3621 17.4224L20.1823 17.9239L20.3456 16.9757C21.6413 9.46547 28.2346 3.74204 36.1758 3.74204C45.0496 3.74204 52.2359 10.8865 52.2359 19.6885C52.2359 28.2828 45.3839 35.2953 36.8001 35.6219Z" stroke="url(#paint3_linear_75_70)"/>
<defs>
<linearGradient id="paint0_linear_75_70" x1="48.7808" y1="31.8237" x2="48.7808" y2="59.4051" gradientUnits="userSpaceOnUse">
<stop stop-color="#2E7AF5"/>
<stop offset="1" stop-color="#0B57D0"/>
</linearGradient>
<radialGradient id="paint1_radial_75_70" cx="0" cy="0" r="1" gradientUnits="userSpaceOnUse" gradientTransform="translate(44.6786 33.4629) rotate(-134.75) scale(38.6308 92.9298)">
<stop stop-color="#B4B4B4"/>
<stop offset="0.298" stop-color="#B4B4B4"/>
<stop offset="1" stop-color="#E3E3E3"/>
</radialGradient>
<linearGradient id="paint2_linear_75_70" x1="34.6829" y1="18.6175" x2="42.18" y2="34.6815" gradientUnits="userSpaceOnUse">
<stop stop-color="#80868B" stop-opacity="0"/>
<stop offset="1" stop-color="#80868B"/>
</linearGradient>
<linearGradient id="paint3_linear_75_70" x1="46.9983" y1="3.08898" x2="7.90999" y2="18.082" gradientUnits="userSpaceOnUse">
<stop stop-color="#81878C"/>
<stop offset="1" stop-color="#C3C5C6" stop-opacity="0"/>
</linearGradient>
</defs>
</svg>
