<svg width="64" height="64" viewBox="0 0 64 64" fill="none" xmlns="http://www.w3.org/2000/svg">
<path fill-rule="evenodd" clip-rule="evenodd" d="M20.8478 1.33331C18.5985 4.07065 17.2345 7.53731 17.2345 11.324C17.2345 20.16 24.6038 27.324 33.7078 27.324H34.2225C31.2105 30.9866 26.5692 33.3333 21.3625 33.3333C12.2572 33.3333 4.88916 26.1693 4.88916 17.3333C4.88916 8.65731 11.9918 1.59998 20.8492 1.33331H20.8478Z" fill="url(#paint0_linear_78_228)"/>
<path fill-rule="evenodd" clip-rule="evenodd" d="M28.1735 41.3333L35.8428 26.1333C36.6268 24.2333 37.5988 23 39.6775 23H62.5815C62.6322 22.4493 62.6668 21.9 62.6668 21.3333C62.6668 10.284 53.3455 1.33331 41.8588 1.33331C31.5655 1.33331 23.0282 8.49998 21.3402 17.9333C19.2609 16.7045 16.8887 16.0596 14.4735 16.0666C7.21349 16.0666 1.3335 21.7173 1.3335 28.7C1.3335 35.4 6.75216 40.8666 13.6042 41.3V41.3333H28.1735Z" fill="url(#paint1_radial_78_228)" fill-opacity="0.92"/>
<path d="M22.6668 44L17.0134 49.4733C16.2721 50.1772 15.6817 51.0247 15.2783 51.964C14.8749 52.9034 14.6668 53.915 14.6668 54.9373C14.6668 55.9596 14.8749 56.9712 15.2783 57.9106C15.6817 58.85 16.2721 59.6974 17.0134 60.4013C20.1428 63.4213 25.2094 63.4213 28.3201 60.4013C29.0615 59.6974 29.6518 58.85 30.0553 57.9106C30.4587 56.9712 30.6667 55.9596 30.6667 54.9373C30.6667 53.915 30.4587 52.9034 30.0553 51.964C29.6518 51.0247 29.0615 50.1772 28.3201 49.4733L28.2668 49.42L22.6668 44ZM9.33344 29.3333L3.68011 34.8066C2.93874 35.5106 2.34838 36.358 1.94496 37.2974C1.54154 38.2367 1.3335 39.2483 1.3335 40.2706C1.3335 41.293 1.54154 42.3046 1.94496 43.2439C2.34838 44.1833 2.93874 45.0307 3.68011 45.7346C6.80944 48.7546 11.8761 48.7546 14.9868 45.7346C15.7281 45.0307 16.3185 44.1833 16.7219 43.2439C17.1253 42.3046 17.3334 41.293 17.3334 40.2706C17.3334 39.2483 17.1253 38.2367 16.7219 37.2974C16.3185 36.358 15.7281 35.5106 14.9868 34.8066L14.9334 34.7533L9.33344 29.3333Z" fill="#0B57D0"/>
<path fill-rule="evenodd" clip-rule="evenodd" d="M40.8893 28L32 46.3387H40L39.004 62.6667L58.6667 41.2773L51.556 41.2427L58.6667 28H40.8893Z" fill="url(#paint2_linear_78_228)"/>
<defs>
<linearGradient id="paint0_linear_78_228" x1="2.33849" y1="1.33331" x2="34.8052" y2="36.0693" gradientUnits="userSpaceOnUse">
<stop stop-color="#A8C7FA"/>
<stop offset="0.461" stop-color="#4C8DF6"/>
</linearGradient>
<radialGradient id="paint1_radial_78_228" cx="0" cy="0" r="1" gradientUnits="userSpaceOnUse" gradientTransform="translate(52.4442 37.9306) rotate(-135.69) scale(47.3207 113.805)">
<stop offset="0.298" stop-color="#898989"/>
<stop offset="1" stop-color="#E3E3E3"/>
</radialGradient>
<linearGradient id="paint2_linear_78_228" x1="40.6667" y1="29.3333" x2="55.9467" y2="59.2787" gradientUnits="userSpaceOnUse">
<stop stop-color="#FCB224"/>
<stop offset="0.557" stop-color="#E47100"/>
</linearGradient>
</defs>
</svg>
