<svg width="64" height="64" viewBox="0 0 64 64" fill="none" xmlns="http://www.w3.org/2000/svg">
<path d="M27.6815 6.592C29.1672 6.6927 30.5662 7.32834 31.6193 8.38123C32.6725 9.43411 33.3084 10.8329 33.4095 12.3187C33.5006 13.6611 34.0288 14.9368 34.9135 15.9507C35.8922 17.0726 36.4314 18.5111 36.4314 20C36.4314 21.4889 35.8922 22.9274 34.9135 24.0493C34.0289 25.0633 33.5007 26.3389 33.4095 27.6813C33.3087 29.1673 32.6729 30.5664 31.6198 31.6196C30.5666 32.6728 29.1675 33.3086 27.6815 33.4093C26.339 33.5005 25.0634 34.0288 24.0495 34.9133C22.9276 35.8923 21.4891 36.4317 20.0001 36.4317C18.5112 36.4317 17.0727 35.8923 15.9508 34.9133C14.9369 34.0288 13.6612 33.5005 12.3188 33.4093C10.8331 33.3083 9.43426 32.6723 8.38137 31.6192C7.32849 30.5661 6.69285 29.1671 6.59214 27.6813C6.50056 26.3387 5.97184 25.0631 5.08681 24.0493C4.10809 22.9274 3.56885 21.4889 3.56885 20C3.56885 18.5111 4.10809 17.0726 5.08681 15.9507C5.97193 14.937 6.50066 13.6613 6.59214 12.3187C6.69316 10.8331 7.32893 9.4345 8.38179 8.38164C9.43464 7.32879 10.8333 6.69301 12.3188 6.592C13.6614 6.50042 14.9371 5.9717 15.9508 5.08667C17.0727 4.10768 18.5112 3.56827 20.0001 3.56827C21.4891 3.56827 22.9276 4.10768 24.0495 5.08667C25.0632 5.9717 26.3389 6.50042 27.6815 6.592Z" fill="url(#paint0_radial_75_107)"/>
<path fill-rule="evenodd" clip-rule="evenodd" d="M28.1735 41.3333L35.8428 26.1333C36.6268 24.2333 37.5988 23 39.6775 23H62.5815C62.6322 22.4493 62.6668 21.9 62.6668 21.3333C62.6668 10.284 53.3455 1.33334 41.8588 1.33334C31.5655 1.33334 23.0282 8.50001 21.3402 17.9333C19.2609 16.7046 16.8887 16.0597 14.4735 16.0667C7.21349 16.0667 1.3335 21.7173 1.3335 28.7C1.3335 35.4 6.75216 40.8667 13.6042 41.3V41.3333H28.1735Z" fill="url(#paint1_radial_75_107)" fill-opacity="0.92"/>
<path d="M22.6666 44L17.0132 49.476C16.2719 50.1805 15.6816 51.0284 15.2782 51.9682C14.8748 52.908 14.6668 53.92 14.6668 54.9427C14.6668 55.9654 14.8748 56.9774 15.2782 57.9172C15.6816 58.8569 16.2719 59.7049 17.0132 60.4093C20.1426 63.4307 25.2092 63.4307 28.3199 60.4093C29.0612 59.7049 29.6516 58.8569 30.0549 57.9172C30.4583 56.9774 30.6663 55.9654 30.6663 54.9427C30.6663 53.92 30.4583 52.908 30.0549 51.9682C29.6516 51.0284 29.0612 50.1805 28.3199 49.476L28.2666 49.4227L22.6666 44ZM9.33324 29.3333L3.6799 34.8093C2.93856 35.5138 2.34825 36.3618 1.94488 37.3015C1.54151 38.2413 1.3335 39.2533 1.3335 40.276C1.3335 41.2987 1.54151 42.3107 1.94488 43.2505C2.34825 44.1903 2.93856 45.0382 3.6799 45.7427C6.80924 48.764 11.8759 48.764 14.9866 45.7427C15.7279 45.0382 16.3182 44.1903 16.7216 43.2505C17.125 42.3107 17.333 41.2987 17.333 40.276C17.333 39.2533 17.125 38.2413 16.7216 37.3015C16.3182 36.3618 15.7279 35.5138 14.9866 34.8093L14.9332 34.756L9.33324 29.3333Z" fill="#0B57D0"/>
<path fill-rule="evenodd" clip-rule="evenodd" d="M40.8893 28L32 46.3387H40L39.004 62.6667L58.6667 41.2773L51.556 41.2427L58.6667 28H40.8893Z" fill="url(#paint2_linear_75_107)"/>
<defs>
<radialGradient id="paint0_radial_75_107" cx="0" cy="0" r="1" gradientUnits="userSpaceOnUse" gradientTransform="translate(10.3918 5.69735) rotate(63.555) scale(30.3072)">
<stop stop-color="#FFBB29"/>
<stop offset="0.27" stop-color="#FCB224"/>
<stop offset="0.524" stop-color="#E47100"/>
</radialGradient>
<radialGradient id="paint1_radial_75_107" cx="0" cy="0" r="1" gradientUnits="userSpaceOnUse" gradientTransform="translate(52.4442 37.9307) rotate(-135.69) scale(47.3207 113.805)">
<stop offset="0.298" stop-color="#898989"/>
<stop offset="1" stop-color="#E3E3E3"/>
</radialGradient>
<linearGradient id="paint2_linear_75_107" x1="40.6667" y1="29.3333" x2="55.9467" y2="59.2787" gradientUnits="userSpaceOnUse">
<stop stop-color="#FCB224"/>
<stop offset="0.557" stop-color="#E47100"/>
</linearGradient>
</defs>
</svg>
