<svg width="64" height="64" viewBox="0 0 64 64" fill="none" xmlns="http://www.w3.org/2000/svg">
<path fill-rule="evenodd" clip-rule="evenodd" d="M28.1735 41.3333L35.8428 25.6267C36.6268 23.6627 37.5988 22.3893 39.6775 22.3893H62.5815C62.6322 21.82 62.6668 21.252 62.6668 20.6667C62.6668 9.248 53.3455 0 41.8588 0C31.5655 0 23.0282 7.40533 21.3402 17.1533C19.2739 15.8872 16.8968 15.2193 14.4735 15.224C7.21349 15.224 1.3335 21.064 1.3335 28.28C1.3335 35.204 6.75216 40.8533 13.6042 41.3V41.3333H28.1735Z" fill="url(#paint0_radial_75_112)" fill-opacity="0.92"/>
<path d="M23.9999 44L18.3466 49.476C17.6052 50.1805 17.0149 51.0284 16.6115 51.9682C16.2082 52.908 16.0002 53.92 16.0002 54.9427C16.0002 55.9654 16.2082 56.9774 16.6115 57.9172C17.0149 58.8569 17.6052 59.7049 18.3466 60.4093C21.4759 63.4307 26.5426 63.4307 29.6532 60.4093C30.3946 59.7049 30.9849 58.8569 31.3883 57.9172C31.7916 56.9774 31.9996 55.9654 31.9996 54.9427C31.9996 53.92 31.7916 52.908 31.3883 51.9682C30.9849 51.0284 30.3946 50.1805 29.6532 49.476L29.5999 49.4227L23.9999 44ZM9.33324 29.3333L3.6799 34.8093C2.93856 35.5138 2.34825 36.3618 1.94488 37.3015C1.54151 38.2413 1.3335 39.2533 1.3335 40.276C1.3335 41.2987 1.54151 42.3107 1.94488 43.2505C2.34825 44.1903 2.93856 45.0382 3.6799 45.7427C6.80924 48.764 11.8759 48.764 14.9866 45.7427C15.7279 45.0382 16.3182 44.1903 16.7216 43.2505C17.125 42.3107 17.333 41.2987 17.333 40.276C17.333 39.2533 17.125 38.2413 16.7216 37.3015C16.3182 36.3618 15.7279 35.5138 14.9866 34.8093L14.9332 34.756L9.33324 29.3333Z" fill="#0B57D0"/>
<path fill-rule="evenodd" clip-rule="evenodd" d="M40.8893 28L32 46.3387H40L39.004 62.6667L58.6667 41.2773L51.556 41.2427L58.6667 28H40.8893Z" fill="url(#paint1_linear_75_112)"/>
<defs>
<radialGradient id="paint0_radial_75_112" cx="0" cy="0" r="1" gradientUnits="userSpaceOnUse" gradientTransform="translate(52.4443 37.8173) rotate(-134.75) scale(48.0968 115.701)">
<stop offset="0.298" stop-color="#898989"/>
<stop offset="1" stop-color="#E3E3E3"/>
</radialGradient>
<linearGradient id="paint1_linear_75_112" x1="40.6667" y1="29.3333" x2="55.9467" y2="59.2787" gradientUnits="userSpaceOnUse">
<stop stop-color="#FCB224"/>
<stop offset="0.557" stop-color="#E47100"/>
</linearGradient>
</defs>
</svg>
