<svg width="64" height="64" viewBox="0 0 64 64" fill="none" xmlns="http://www.w3.org/2000/svg">
<g clip-path="url(#clip0_75_52)">
<mask id="mask0_75_52" style="mask-type:luminance" maskUnits="userSpaceOnUse" x="0" y="0" width="64" height="64">
<path d="M0 0H64V64H0V0Z" fill="white"/>
</mask>
<g mask="url(#mask0_75_52)">
<path d="M35.9598 7.09866C38.0463 7.19211 40.0223 8.06282 41.4993 9.53955C42.9763 11.0163 43.8473 12.9922 43.9411 15.0787C44.0278 16.9643 44.7474 18.7657 45.9838 20.192C48.7598 23.392 48.7625 28.1733 45.9678 31.356L45.6438 31.7253C44.3809 33.1669 43.607 34.9714 43.4331 36.88C43.2327 39.0217 42.2907 41.0262 40.7697 42.5472C39.2486 44.0682 37.2442 45.0103 35.1025 45.2107C33.1938 45.3845 31.3893 46.1584 29.9478 47.4213L29.5785 47.7453C26.3945 50.5413 21.6145 50.5373 18.4145 47.7627C16.9884 46.5257 15.1869 45.8056 13.3011 45.7187C11.2144 45.6252 9.23818 44.7543 7.76117 43.2773C6.28416 41.8003 5.41327 39.824 5.31979 37.7373C5.23296 35.8521 4.51335 34.0512 3.27713 32.6253C0.501126 29.4253 0.49846 24.644 3.29446 21.4613L3.61846 21.092C4.8811 19.6499 5.65453 17.8449 5.82779 15.936C6.02846 13.7945 6.97065 11.7904 8.49165 10.2696C10.0127 8.74886 12.017 7.80699 14.1585 7.60666C16.0675 7.43302 17.8725 6.65912 19.3145 5.396L19.6825 5.072C22.8665 2.276 27.6465 2.28 30.8465 5.05466C32.2725 6.29165 34.074 7.01176 35.9598 7.09866Z" fill="url(#paint0_radial_75_52)"/>
<path fill-rule="evenodd" clip-rule="evenodd" d="M62.6663 36.6667C62.6663 47.8107 53.7837 56.8933 42.6663 57.316V57.3333H14.6663V57.3293H14.4757C7.21701 57.3307 1.33301 51.488 1.33301 44.28C1.33301 37.0707 7.21701 31.2267 14.4757 31.2267C16.9957 31.2267 19.3477 31.932 21.3477 33.152C23.0277 23.412 31.573 16 41.857 16C53.3503 16 62.6663 25.2533 62.6663 36.6667Z" fill="url(#paint1_linear_75_52)" fill-opacity="0.95"/>
</g>
</g>
<defs>
<radialGradient id="paint0_radial_75_52" cx="0" cy="0" r="1" gradientUnits="userSpaceOnUse" gradientTransform="translate(10.0857 11.5515) rotate(55.801) scale(26.3359 27.5036)">
<stop offset="0.016" stop-color="#FFBB29"/>
<stop offset="0.393" stop-color="#FCB224"/>
<stop offset="0.967" stop-color="#E47100"/>
</radialGradient>
<linearGradient id="paint1_linear_75_52" x1="42.2223" y1="61.4667" x2="23.0197" y2="29.3027" gradientUnits="userSpaceOnUse">
<stop offset="0.078" stop-color="#A0A0A0"/>
<stop offset="0.349" stop-color="#CCCCCC"/>
<stop offset="1" stop-color="white"/>
</linearGradient>
<clipPath id="clip0_75_52">
<rect width="64" height="64" fill="white"/>
</clipPath>
</defs>
</svg>
