<svg width="64" height="64" viewBox="0 0 64 64" fill="none" xmlns="http://www.w3.org/2000/svg">
<path fill-rule="evenodd" clip-rule="evenodd" d="M17.2908 1.33331C14.9605 4.14268 13.6847 7.67789 13.6842 11.328C13.6842 20.168 21.0575 27.332 30.1535 27.332C30.3242 27.332 30.4948 27.3293 30.6642 27.324C27.6468 30.988 23.0055 33.3333 17.8015 33.3333C8.70683 33.3333 1.3335 26.168 1.3335 17.3293C1.3335 8.65731 8.43216 1.59598 17.2908 1.33331Z" fill="url(#paint0_linear_78_235)"/>
<path fill-rule="evenodd" clip-rule="evenodd" d="M62.6668 22C62.6668 33.144 53.7842 42.228 42.6668 42.6506V42.6666H14.6668V42.664H14.4762C7.2175 42.6653 1.3335 36.8226 1.3335 29.6133C1.3335 22.404 7.2175 16.56 14.4762 16.56C16.9962 16.56 19.3482 17.264 21.3482 18.4853C23.0282 8.74531 31.5722 1.33331 41.8575 1.33331C53.3508 1.33331 62.6668 10.5866 62.6668 22Z" fill="url(#paint1_radial_78_235)" fill-opacity="0.95"/>
<path d="M30.6665 26.6667L25.0091 32.1334C24.2686 32.8386 23.679 33.6869 23.2761 34.6268C22.8733 35.5667 22.6655 36.5787 22.6655 37.6014C22.6655 38.624 22.8733 39.636 23.2761 40.5759C23.679 41.5158 24.2686 42.3641 25.0091 43.0694C28.1331 46.088 33.1985 46.088 36.3225 43.0694C37.0672 42.3602 37.6592 41.5064 38.0622 40.5603C38.4652 39.6142 38.6707 38.5957 38.666 37.5674C38.6614 36.539 38.4468 35.5225 38.0353 34.58C37.6238 33.6376 37.0242 32.7891 36.2731 32.0867L30.6665 26.6667ZM41.3331 44L35.6758 49.4667C34.9352 50.1719 34.3456 51.0202 33.9428 51.9601C33.5399 52.9001 33.3322 53.9121 33.3322 54.9347C33.3322 55.9573 33.5399 56.9693 33.9428 57.9092C34.3456 58.8492 34.9352 59.6975 35.6758 60.4027C38.7998 63.4213 43.8651 63.4213 46.9891 60.4027C47.7338 59.6935 48.3258 58.8397 48.7288 57.8936C49.1318 56.9475 49.3373 55.9291 49.3327 54.9007C49.3281 53.8724 49.1135 52.8558 48.702 51.9134C48.2905 50.9709 47.6909 50.1225 46.9398 49.42L41.3331 44ZM54.6665 26.6667L49.0091 32.1334C48.2688 32.8386 47.6794 33.6868 47.2766 34.6266C46.8739 35.5664 46.6662 36.5782 46.6662 37.6007C46.6662 38.6232 46.8739 39.635 47.2766 40.5748C47.6794 41.5146 48.2688 42.3628 49.0091 43.068C52.1345 46.088 57.1998 46.088 60.3238 43.068C61.0639 42.3628 61.6532 41.5147 62.0558 40.575C62.4584 39.6353 62.666 38.6237 62.666 37.6014C62.666 36.579 62.4584 35.5674 62.0558 34.6277C61.6532 33.688 61.0639 32.8399 60.3238 32.1347L60.2731 32.0867L54.6665 26.6667Z" fill="#0B57D0"/>
<defs>
<linearGradient id="paint0_linear_78_235" x1="-1.21717" y1="1.33331" x2="31.2495" y2="36.0666" gradientUnits="userSpaceOnUse">
<stop stop-color="#A8C7FA"/>
<stop offset="0.461" stop-color="#4C8DF6"/>
</linearGradient>
<radialGradient id="paint1_radial_78_235" cx="0" cy="0" r="1" gradientUnits="userSpaceOnUse" gradientTransform="translate(52.4435 39.1502) rotate(-134.75) scale(48.0968 115.701)">
<stop offset="0.298" stop-color="#B4B4B4"/>
<stop offset="1" stop-color="#E3E3E3"/>
</radialGradient>
</defs>
</svg>
