<svg width="64" height="64" viewBox="0 0 64 64" fill="none" xmlns="http://www.w3.org/2000/svg">
<path fill-rule="evenodd" clip-rule="evenodd" d="M18.6252 1.33331C16.2947 4.14262 15.019 7.67787 15.0185 11.328C15.0185 20.168 22.3918 27.332 31.4878 27.332C31.6598 27.332 31.8305 27.3293 31.9998 27.324C28.9812 30.988 24.3412 33.3333 19.1358 33.3333C10.0398 33.3333 2.6665 26.168 2.6665 17.3293C2.6665 8.65731 9.76517 1.59598 18.6252 1.33331Z" fill="url(#paint0_linear_78_254)"/>
<path fill-rule="evenodd" clip-rule="evenodd" d="M62.6668 21.9986C62.6668 33.1426 53.7842 42.2253 42.6668 42.6493V42.6666H14.6668V42.6626H14.4762C7.2175 42.664 1.3335 36.8213 1.3335 29.6133C1.3335 22.4053 7.2175 16.5613 14.4762 16.5613C16.9962 16.5613 19.3495 17.2653 21.3482 18.4866C23.0282 8.74531 31.5708 1.33331 41.8575 1.33331C53.3508 1.33331 62.6668 10.5866 62.6668 21.9986Z" fill="url(#paint1_radial_78_254)" fill-opacity="0.95"/>
<path fill-rule="evenodd" clip-rule="evenodd" d="M31.0053 38.924V45.3333H32.9933V38.924L39.0067 42.128L40 40.5386L33.988 37.3333L40 34.128L39.0053 32.5386L32.9933 35.744V29.3333H31.0067V35.7426L24.9933 32.5386L24 34.128L30.012 37.3333L24 40.5386L24.9947 42.128L31.0053 38.924Z" fill="#5E5E5E"/>
<path d="M31.0053 38.924H31.2053V38.5907L30.912 38.7467L31.0053 38.924ZM31.0053 45.3334H30.8053V45.5334H31.0053V45.3334ZM32.9933 45.3334V45.5334H33.1933V45.3334H32.9933ZM32.9933 38.924L33.088 38.7467L32.7946 38.5907V38.924H32.9933ZM39.0066 42.128L38.912 42.3054L39.0759 42.3934L39.176 42.2334L39.0066 42.128ZM40 40.5387L40.1693 40.6454L40.2826 40.4627L40.0946 40.3614L40 40.5387ZM33.988 37.3334L33.8946 37.1574L33.5626 37.3334L33.8946 37.5107L33.988 37.3334ZM40 34.128L40.0933 34.3054L40.2826 34.204L40.1693 34.0227L40 34.128ZM39.0053 32.5387L39.1746 32.432L39.0759 32.2747L38.912 32.3614L39.0053 32.5387ZM32.9933 35.744H32.7933V36.0774L33.088 35.92L32.9933 35.744ZM32.9933 29.3334H33.1933V29.1334H32.9933V29.3334ZM31.0066 29.3334V29.1334H30.8066V29.3334H31.0066ZM31.0066 35.7427L30.912 35.92L31.2053 36.076V35.7427H31.0066ZM24.9933 32.5387L25.088 32.3614L24.924 32.2747L24.824 32.432L24.9933 32.5387ZM24 34.128L23.8306 34.0214L23.7173 34.204L23.9053 34.3054L24 34.128ZM30.012 37.3334L30.1053 37.5107L30.4373 37.3334L30.1053 37.1574L30.012 37.3334ZM24 40.5387L23.9066 40.3614L23.7173 40.4627L23.8306 40.644L24 40.5387ZM24.9946 42.128L24.8253 42.2347L24.924 42.3934L25.088 42.3054L24.9946 42.128ZM30.8053 38.924V45.3334H31.2053V38.924H30.8053ZM31.0053 45.5334H32.9933V45.1334H31.0066L31.0053 45.5334ZM33.1933 45.3334V38.924H32.7933V45.3334H33.1933ZM32.9 39.1L38.912 42.3054L39.0986 41.952L33.088 38.7467L32.9 39.1ZM39.176 42.2334L40.1693 40.6454L39.8306 40.432L38.836 42.0227L39.176 42.2347V42.2334ZM40.0946 40.3614L34.0813 37.1574L33.8946 37.5107L39.9053 40.7147L40.0946 40.3614ZM39.9053 33.952L33.8946 37.1574L34.0813 37.5107L40.0933 34.3054L39.9053 33.952ZM38.836 32.6454L39.8306 34.2347L40.1693 34.0227L39.1746 32.432L38.836 32.6454ZM33.088 35.92L39.1 32.7147L38.912 32.3614L32.8986 35.5667L33.088 35.92ZM33.1946 35.744L33.1933 29.3334H32.7946V35.744H33.1946ZM32.9933 29.1334H31.0066L31.0053 29.5334H32.9933V29.1334ZM30.8066 29.3334L30.8053 35.7427H31.2053V29.3334H30.8066ZM31.0986 35.5667L25.088 32.3614L24.9013 32.7147L30.912 35.92L31.0986 35.5667ZM24.824 32.4334L23.8306 34.0214L24.1693 34.2347L25.164 32.644L24.824 32.432V32.4334ZM23.9053 34.3054L29.9186 37.5107L30.1053 37.1574L24.0946 33.952L23.9053 34.3054ZM24.0946 40.7147L30.1053 37.5107L29.9186 37.1574L23.9066 40.3614L24.0946 40.7147ZM25.164 42.0214L24.1693 40.432L23.8306 40.644L24.8253 42.2347L25.164 42.0214ZM30.912 38.7467L24.9 41.952L25.088 42.3054L31.1 39.1L30.912 38.7467Z" fill="#5E5E5E"/>
<path fill-rule="evenodd" clip-rule="evenodd" d="M45.8387 53.324V58.6666H47.4947V53.324L52.5053 55.9946L53.3333 54.6706L48.324 51.9986L53.3333 49.328L52.5053 48.004L47.4947 50.6746V45.3333H45.84V50.6746L40.8293 48.004L40.0013 49.328L45.0093 52L40 54.6706L40.828 55.9946L45.8387 53.324Z" fill="#5E5E5E"/>
<path d="M45.8386 53.324H46.0386V52.9906L45.7453 53.148L45.8386 53.324ZM45.8386 58.6666H45.6386V58.8666H45.8386V58.6666ZM47.4946 58.6666V58.8666H47.6946V58.6666H47.4946ZM47.4946 53.324L47.5893 53.148L47.296 52.9906V53.324H47.496H47.4946ZM52.5053 55.9946L52.4119 56.172L52.576 56.26L52.6746 56.1L52.5053 55.9946ZM53.3333 54.6706L53.5026 54.7773L53.616 54.5946L53.428 54.4933L53.3333 54.6706ZM48.324 51.9986L48.2306 51.8226L47.8973 52L48.2306 52.176L48.324 51.9986ZM53.3333 49.328L53.4266 49.5053L53.616 49.404L53.5026 49.2226L53.3333 49.3293V49.328ZM52.5053 48.004L52.6746 47.8973L52.576 47.7386L52.4106 47.8266L52.5039 48.004H52.5053ZM47.4946 50.6746H47.2946V51.008L47.5893 50.8506L47.496 50.6746H47.4946ZM47.4946 45.3333H47.6946V45.1333H47.4946V45.3333ZM45.8386 45.3333V45.1333H45.6386V45.3333H45.8386ZM45.8386 50.6746L45.7453 50.8506L46.0386 51.008V50.6746H45.8386ZM40.828 48.004L40.9213 47.8266L40.7573 47.7386L40.6586 47.8986L40.828 48.004ZM40 49.328L39.8306 49.2213L39.7173 49.404L39.9053 49.5053L40 49.328ZM45.0093 52L45.1026 52.1773L45.436 52L45.1026 51.824L45.0093 52ZM40 54.6706L39.9066 54.4933L39.7173 54.5946L39.8306 54.776L40 54.6706ZM40.828 55.9946L40.6586 56.1013L40.7573 56.26L40.9226 56.172L40.828 55.9946ZM45.6386 53.324V58.6666H46.0386V53.324H45.6386ZM45.8386 58.8666H47.4946V58.4666H45.84L45.8386 58.8666ZM47.6946 58.6666L47.6933 53.324H47.2933V58.6666H47.6946ZM47.4 53.5013L52.4093 56.172L52.5973 55.8186L47.5893 53.148L47.4 53.5013ZM52.6733 56.1013L53.5013 54.776L53.1626 54.564L52.3333 55.8893L52.6733 56.1013ZM53.428 54.4933L48.416 51.8226L48.2306 52.176L53.2373 54.8466L53.428 54.4933ZM53.2373 49.152L48.228 51.8226L48.416 52.176L53.4266 49.5053L53.2373 49.152ZM52.3333 48.1093L53.1626 49.4346L53.5013 49.2213L52.6746 47.8973L52.3333 48.1093ZM47.5893 50.8506L52.5973 48.18L52.4106 47.8266L47.4 50.4973L47.5893 50.8506ZM47.6946 50.6746V45.3333H47.2946V50.6746H47.6946ZM47.4946 45.1333H45.8373V45.5333H47.4933L47.4946 45.1333ZM45.6386 45.3333L45.6373 50.6746H46.0386L46.0373 45.3333H45.6386ZM45.9306 50.4973L40.9213 47.8266L40.7333 48.18L45.7426 50.8506L45.9306 50.4973ZM40.6573 47.8973L39.8293 49.2226L40.168 49.4346L40.9973 48.1093L40.6573 47.8973ZM39.904 49.5053L44.9146 52.176L45.1013 51.8226L40.0933 49.152L39.904 49.5053ZM40.0933 54.8466L45.1026 52.1773L44.9146 51.8226L39.904 54.4933L40.0933 54.8466ZM40.9973 55.8893L40.168 54.564L39.8293 54.7773L40.6586 56.1013L40.9973 55.8893ZM45.7453 53.148L40.7333 55.8186L40.92 56.172L45.9306 53.5013L45.7453 53.148Z" fill="#5E5E5E"/>
<path fill-rule="evenodd" clip-rule="evenodd" d="M52.3388 33.5907V40H54.3282V33.5907L60.3388 36.7947L61.3335 35.2053L55.3215 32L61.3335 28.7947L60.3388 27.2053L54.3282 30.4107V24H52.3388V30.4093L46.3282 27.2053L45.3335 28.7947L51.3455 32L45.3335 35.2053L46.3282 36.7947L52.3388 33.5907Z" fill="#5E5E5E"/>
<path d="M52.3388 33.5907H52.5388V33.2573L52.2454 33.4133L52.3388 33.5907ZM52.3388 40H52.1388V40.2H52.3388V40ZM54.3281 40V40.2H54.5281V40H54.3281ZM54.3281 33.5907L54.4215 33.4133L54.1281 33.2573V33.5907H54.3281ZM60.3388 36.7947L60.2454 36.972L60.4094 37.06L60.5095 36.9L60.3388 36.7947ZM61.3335 35.2053L61.5028 35.312L61.6161 35.1293L61.4281 35.028L61.3335 35.2053ZM55.3215 32L55.2281 31.824L54.8961 32L55.2281 32.1773L55.3215 32ZM61.3335 28.7947L61.4268 28.972L61.6161 28.8707L61.5028 28.6893L61.3335 28.7947ZM60.3388 27.2053L60.5095 27.0987L60.4094 26.9413L60.2454 27.028L60.3388 27.2053ZM54.3281 30.4107H54.1281V30.744L54.4215 30.5867L54.3281 30.4107ZM54.3281 24H54.5281V23.8H54.3281V24ZM52.3388 24V23.8H52.1388V24H52.3388ZM52.3388 30.4093L52.2454 30.5867L52.5388 30.7427V30.4093H52.3388ZM46.3281 27.2053L46.4215 27.028L46.2575 26.9413L46.1575 27.0987L46.3281 27.2053ZM45.3335 28.7947L45.1641 28.688L45.0508 28.8707L45.2388 28.972L45.3335 28.7947ZM51.3454 32L51.4388 32.1773L51.7708 32L51.4388 31.824L51.3454 32ZM45.3335 35.2053L45.2401 35.028L45.0508 35.1293L45.1641 35.3107L45.3335 35.2053ZM46.3281 36.7947L46.1575 36.9013L46.2575 37.06L46.4215 36.972L46.3281 36.7947ZM52.1388 33.5907V40H52.5388V33.5907H52.1388ZM52.3388 40.2H54.3281V39.8H52.3388V40.2ZM54.5281 40V33.5907H54.1281V40H54.5281ZM54.2334 33.7667L60.2454 36.972L60.4321 36.6187L54.4215 33.4133L54.2334 33.7667ZM60.5095 36.9L61.5028 35.312L61.1641 35.0987L60.1694 36.6893L60.5095 36.9013V36.9ZM61.4281 35.028L55.4148 31.824L55.2281 32.1773L61.2388 35.3813L61.4281 35.028ZM61.2388 28.6187L55.2281 31.824L55.4148 32.1773L61.4268 28.972L61.2388 28.6187ZM60.1694 27.312L61.1641 28.9013L61.5028 28.6893L60.5095 27.0987L60.1694 27.312ZM54.4215 30.5867L60.4335 27.3813L60.2454 27.028L54.2321 30.2333L54.4215 30.5867ZM54.5281 30.4107V24H54.1281V30.4107H54.5281ZM54.3281 23.8H52.3388V24.2H54.3281V23.8ZM52.1388 24V30.4093H52.5388V24H52.1388ZM52.4321 30.2333L46.4215 27.028L46.2348 27.3813L52.2454 30.5867L52.4321 30.2333ZM46.1575 27.1L45.1641 28.688L45.5028 28.9013L46.4975 27.3107L46.1575 27.0987V27.1ZM45.2388 28.972L51.2521 32.1773L51.4388 31.824L45.4281 28.6187L45.2388 28.972ZM45.4281 35.3813L51.4388 32.1773L51.2521 31.824L45.2401 35.028L45.4281 35.3813ZM46.4975 36.688L45.5028 35.0987L45.1641 35.3107L46.1575 36.9013L46.4975 36.688ZM52.2454 33.4133L46.2334 36.6187L46.4215 36.972L52.4335 33.7667L52.2454 33.4133Z" fill="#5E5E5E"/>
<defs>
<linearGradient id="paint0_linear_78_254" x1="0.115837" y1="1.33331" x2="32.5825" y2="36.0693" gradientUnits="userSpaceOnUse">
<stop stop-color="#A8C7FA"/>
<stop offset="0.461" stop-color="#4C8DF6"/>
</linearGradient>
<radialGradient id="paint1_radial_78_254" cx="0" cy="0" r="1" gradientUnits="userSpaceOnUse" gradientTransform="translate(52.4435 39.1502) rotate(-134.75) scale(48.0968 115.701)">
<stop offset="0.298" stop-color="#B4B4B4"/>
<stop offset="1" stop-color="#E3E3E3"/>
</radialGradient>
</defs>
</svg>
