<svg width="64" height="64" viewBox="0 0 64 64" fill="none" xmlns="http://www.w3.org/2000/svg">
<path fill-rule="evenodd" clip-rule="evenodd" d="M51.3397 13.871L14.7683 50.4425L13.3838 49.0567L49.9552 12.4852L51.3397 13.871Z" fill="#ABABAB"/>
<path d="M10.0639 14.2681L19.2982 5.34204L28.4541 14.1897L28.5364 14.2681C29.8857 15.5649 30.9273 17.1475 31.5849 18.8996C32.1622 20.4434 31.547 22.1179 30.382 23.2842L19.6744 33.9918C18.5642 35.102 16.9929 35.7133 15.4856 35.2705C13.4505 34.6746 11.5904 33.5936 10.0652 32.1202C4.9635 27.1909 4.9635 19.1974 10.0639 14.2681Z" fill="url(#paint0_linear_76_155)"/>
<path d="M28.9478 45.4713C28.2882 46.1309 28.0818 47.0975 28.1458 48.0274C28.258 49.6809 28.9655 51.2378 30.1374 52.4097C31.3093 53.5816 32.8662 54.2892 34.5197 54.4013C36.0134 54.5026 37.4327 55.0903 38.5609 56.0744C39.8093 57.1639 41.4101 57.7642 43.067 57.7642C44.7239 57.7642 46.3247 57.1639 47.5731 56.0744C48.7014 55.0896 50.1213 54.5014 51.6156 54.4C53.2691 54.2879 54.826 53.5803 55.9979 52.4084C57.1698 51.2365 57.8773 49.6796 57.9894 48.0261C58.0908 46.5325 58.6784 45.1131 59.6626 43.985C60.752 42.7366 61.3523 41.1358 61.3523 39.4788C61.3523 37.8219 60.752 36.2211 59.6626 34.9727C58.6777 33.8444 58.0896 32.4245 57.9881 30.9303C57.876 29.2767 57.1685 27.7199 55.9966 26.548C54.8247 25.376 53.2678 24.6685 51.6142 24.5564C50.6856 24.4937 49.7191 24.7001 49.0595 25.3597L28.9478 45.4713Z" fill="url(#paint1_radial_76_155)"/>
<defs>
<linearGradient id="paint0_linear_76_155" x1="16.6886" y1="5.34204" x2="16.6886" y2="34.5953" gradientUnits="userSpaceOnUse">
<stop stop-color="#2E7AF5"/>
<stop offset="1" stop-color="#0B57D0"/>
</linearGradient>
<radialGradient id="paint1_radial_76_155" cx="0" cy="0" r="1" gradientUnits="userSpaceOnUse" gradientTransform="translate(38.7407 35.5843) rotate(64.537) scale(20.1319 20.1319)">
<stop offset="0.016" stop-color="#FFBB29"/>
<stop offset="0.531" stop-color="#FCB224"/>
<stop offset="0.99" stop-color="#E47100"/>
</radialGradient>
</defs>
</svg>
