<svg width="64" height="64" viewBox="0 0 64 64" fill="none" xmlns="http://www.w3.org/2000/svg">
<path d="M21.6152 2.88654C21.5665 2.83946 21.5014 2.81314 21.4337 2.81314C21.3659 2.81314 21.3008 2.83946 21.2521 2.88654L8.79434 14.9264C1.81443 21.6738 1.81573 32.6113 8.79565 39.3587C15.7769 46.1048 27.0944 46.1048 34.0743 39.3587C41.0543 32.6113 41.0543 21.6738 34.0743 14.9277C34.0371 14.8918 33.9996 14.8561 33.962 14.8206L21.6152 2.88654Z" fill="url(#paint0_linear_75_102)"/>
<path d="M32.5747 59.6898H32.5146C28.5662 59.6898 25.374 56.512 25.374 52.6015C25.374 51.4325 25.6588 50.3314 26.1629 49.3597C26.2059 49.2873 26.2642 49.2251 26.3337 49.1775C26.4032 49.1299 26.4822 49.0981 26.5652 49.0841C29.2643 48.4899 31.8361 47.42 34.1603 45.9246C34.334 45.8135 34.496 45.8018 34.6083 45.8423C34.9832 45.9768 35.405 46.1623 35.7368 46.3164C35.9111 46.3969 36.0844 46.4796 36.2566 46.5646L36.2867 46.5802L36.2932 46.5842H36.2958L37.0116 46.9473L37.2206 46.1727C39.3312 38.3778 45.5184 36.4826 48.7536 36.4826C55.2137 36.4826 60.4434 41.6823 60.4434 48.0862C60.4434 54.3399 55.4579 59.4442 49.2108 59.682L48.9691 59.6911L32.5747 59.6898Z" fill="url(#paint1_radial_75_102)"/>
<path d="M32.5747 59.6898H32.5146C28.5662 59.6898 25.374 56.512 25.374 52.6015C25.374 51.4325 25.6588 50.3314 26.1629 49.3597C26.2059 49.2873 26.2642 49.2251 26.3337 49.1775C26.4032 49.1299 26.4822 49.0981 26.5652 49.0841C29.2643 48.4899 31.8361 47.42 34.1603 45.9246C34.334 45.8135 34.496 45.8018 34.6083 45.8423C34.9832 45.9768 35.405 46.1623 35.7368 46.3164C35.9111 46.3969 36.0844 46.4796 36.2566 46.5646L36.2867 46.5802L36.2932 46.5842H36.2958L37.0116 46.9473L37.2206 46.1727C39.3312 38.3778 45.5184 36.4826 48.7536 36.4826C55.2137 36.4826 60.4434 41.6823 60.4434 48.0862C60.4434 54.3399 55.4579 59.4442 49.2108 59.682L48.9691 59.6911L32.5747 59.6898Z" stroke="url(#paint2_linear_75_102)"/>
<path d="M32.5747 59.6898H32.5146C28.5662 59.6898 25.374 56.512 25.374 52.6015C25.374 51.4325 25.6588 50.3314 26.1629 49.3597C26.2059 49.2873 26.2642 49.2251 26.3337 49.1775C26.4032 49.1299 26.4822 49.0981 26.5652 49.0841C29.2643 48.4899 31.8361 47.42 34.1603 45.9246C34.334 45.8135 34.496 45.8018 34.6083 45.8423C34.9832 45.9768 35.405 46.1623 35.7368 46.3164C35.9111 46.3969 36.0844 46.4796 36.2566 46.5646L36.2867 46.5802L36.2932 46.5842H36.2958L37.0116 46.9473L37.2206 46.1727C39.3312 38.3778 45.5184 36.4826 48.7536 36.4826C55.2137 36.4826 60.4434 41.6823 60.4434 48.0862C60.4434 54.3399 55.4579 59.4442 49.2108 59.682L48.9691 59.6911L32.5747 59.6898Z" stroke="url(#paint3_linear_75_102)"/>
<defs>
<linearGradient id="paint0_linear_75_102" x1="21.435" y1="2.71152" x2="21.435" y2="42.7442" gradientUnits="userSpaceOnUse">
<stop stop-color="#2E7AF5"/>
<stop offset="1" stop-color="#0B57D0"/>
</linearGradient>
<radialGradient id="paint1_radial_75_102" cx="0" cy="0" r="1" gradientUnits="userSpaceOnUse" gradientTransform="translate(55.0324 58.2587) rotate(-134.75) scale(28.5253 68.62)">
<stop stop-color="#B4B4B4"/>
<stop offset="0.298" stop-color="#B4B4B4"/>
<stop offset="1" stop-color="#E3E3E3"/>
</radialGradient>
<linearGradient id="paint2_linear_75_102" x1="47.6526" y1="47.296" x2="53.1879" y2="59.1582" gradientUnits="userSpaceOnUse">
<stop stop-color="#80868B" stop-opacity="0"/>
<stop offset="1" stop-color="#80868B"/>
</linearGradient>
<linearGradient id="paint3_linear_75_102" x1="56.7471" y1="35.8295" x2="27.8831" y2="46.9002" gradientUnits="userSpaceOnUse">
<stop stop-color="#81878C"/>
<stop offset="1" stop-color="#C3C5C6" stop-opacity="0"/>
</linearGradient>
</defs>
</svg>
