<svg width="64" height="64" viewBox="0 0 64 64" fill="none" xmlns="http://www.w3.org/2000/svg">
<path d="M21.6895 3.3933C21.6407 3.34622 21.5756 3.3199 21.5079 3.3199C21.4402 3.3199 21.3751 3.34622 21.3263 3.3933L8.87117 15.4331C1.89125 22.178 1.89256 33.1154 8.87117 39.8615C15.8511 46.6077 27.1673 46.6077 34.1472 39.8615C41.1272 33.1154 41.1272 22.1793 34.1472 15.4331C34.1104 15.3973 34.0734 15.3616 34.0362 15.326L21.6895 3.3933Z" fill="url(#paint0_linear_75_99)"/>
<path fill-rule="evenodd" clip-rule="evenodd" d="M30.563 47.6434C30.1451 47.8224 29.9753 48.3357 30.2757 48.6792C31.146 49.6768 31.6658 50.9319 31.7555 52.2527C31.8545 53.715 32.48 55.0919 33.5162 56.1283C34.5525 57.1648 35.9292 57.7906 37.3914 57.89C38.7127 57.9794 39.9684 58.4992 40.9663 59.3698C42.0704 60.3337 43.4863 60.8648 44.9519 60.8648C46.4175 60.8648 47.8335 60.3337 48.9376 59.3698C49.9351 58.4994 51.1903 57.9797 52.5111 57.89C53.9736 57.791 55.3506 57.1652 56.3871 56.1287C57.4236 55.0923 58.0493 53.7152 58.1483 52.2527C58.2382 50.9319 58.7579 49.6768 59.6282 48.6792C60.592 47.5751 61.1231 46.1592 61.1231 44.6936C61.1231 43.2279 60.592 41.812 59.6282 40.7079C58.7576 39.71 58.2378 38.4544 58.1483 37.1331C58.049 35.6708 57.4232 34.2941 56.3867 33.2579C55.3503 32.2216 53.9734 31.5961 52.5111 31.4971C51.1901 31.4071 49.935 30.8868 48.9376 30.016C47.8413 29.0577 46.4361 28.5272 44.98 28.5218C44.3661 28.5192 43.9155 29.0469 43.8581 29.6581C43.3931 34.5861 41.2145 39.3887 37.3235 43.1491C35.3618 45.0457 33.0703 46.5684 30.5617 47.6421L30.563 47.6434Z" fill="url(#paint1_radial_75_99)"/>
<defs>
<linearGradient id="paint0_linear_75_99" x1="21.5092" y1="3.21828" x2="21.5092" y2="43.247" gradientUnits="userSpaceOnUse">
<stop stop-color="#2E7AF5"/>
<stop offset="1" stop-color="#0B57D0"/>
</linearGradient>
<radialGradient id="paint1_radial_75_99" cx="0" cy="0" r="1" gradientUnits="userSpaceOnUse" gradientTransform="translate(41.1242 41.2494) rotate(64.537) scale(17.8041)">
<stop offset="0.016" stop-color="#FFBB29"/>
<stop offset="0.531" stop-color="#FCB224"/>
<stop offset="0.99" stop-color="#E47100"/>
</radialGradient>
</defs>
</svg>
