<svg width="64" height="64" viewBox="0 0 64 64" fill="none" xmlns="http://www.w3.org/2000/svg">
<path d="M21.6816 3.84914C21.6329 3.80206 21.5678 3.77574 21.5001 3.77574C21.4324 3.77574 21.3673 3.80206 21.3185 3.84914L8.86075 15.889C1.88083 22.6364 1.88214 33.5739 8.86206 40.3213C15.842 47.0674 27.1608 47.0674 34.1394 40.3213C41.1207 33.5752 41.1207 22.6364 34.1394 15.8903C34.1026 15.8544 34.0656 15.8187 34.0284 15.7832L21.6816 3.84914Z" fill="url(#paint0_linear_75_96)"/>
<path fill-rule="evenodd" clip-rule="evenodd" d="M35.0105 45.5562C35.0246 45.5532 35.0385 45.5498 35.0523 45.5458L39.1287 44.4539C39.2117 44.4316 39.2982 44.4259 39.3834 44.4371C39.4686 44.4483 39.5507 44.4762 39.625 44.5192L41.0618 45.3486C41.3099 45.4922 41.4314 45.7796 41.3909 46.063C41.311 46.6253 41.3115 47.1962 41.3922 47.7584C41.4149 47.8967 41.3956 48.0386 41.337 48.166C41.2783 48.2933 41.1829 48.4001 41.0631 48.4728L39.625 49.3035C39.5507 49.3465 39.4686 49.3744 39.3834 49.3856C39.2982 49.3968 39.2117 49.3911 39.1287 49.3688L35.0536 48.2769C34.9708 48.2546 34.8843 48.2488 34.7993 48.2599C34.7142 48.271 34.6321 48.2987 34.5577 48.3415C34.4834 48.3843 34.4182 48.4414 34.3659 48.5094C34.3136 48.5774 34.2752 48.6551 34.253 48.738L33.6783 50.8826C33.6559 50.9655 33.6501 51.0519 33.6612 51.137C33.6723 51.2221 33.7001 51.3041 33.7429 51.3785C33.7857 51.4528 33.8428 51.518 33.9108 51.5703C33.9788 51.6226 34.0565 51.661 34.1393 51.6833L36.8482 52.4095C37.0155 52.4542 37.1582 52.5635 37.2449 52.7134C37.3316 52.8633 37.3553 53.0415 37.3106 53.2088L36.5844 55.9177C36.5397 56.085 36.5634 56.2632 36.6501 56.4131C36.7368 56.563 36.8795 56.6724 37.0468 56.7171L39.1914 57.2918C39.3585 57.3365 39.5366 57.313 39.6865 57.2266C39.8363 57.1401 39.9458 56.9978 39.9908 56.8307L41.0827 52.7556C41.1048 52.6727 41.1431 52.5949 41.1953 52.5268C41.2475 52.4586 41.3127 52.4015 41.387 52.3585L42.8394 51.52C43.0863 51.3763 43.3945 51.4155 43.6205 51.5905C44.0593 51.9327 44.5478 52.2162 45.0755 52.4264C45.2069 52.4759 45.3205 52.5635 45.4017 52.678C45.4829 52.7925 45.5281 52.9287 45.5313 53.0691V54.75C45.5313 54.8359 45.5143 54.921 45.4814 55.0004C45.4484 55.0797 45.4002 55.1518 45.3393 55.2124L42.3561 58.1956C42.2337 58.3181 42.1649 58.4841 42.1649 58.6573C42.1649 58.8305 42.2337 58.9966 42.3561 59.119L43.9261 60.6903C44.0486 60.8127 44.2147 60.8815 44.3878 60.8815C44.561 60.8815 44.7271 60.8127 44.8495 60.6903L46.8322 58.7063C46.9547 58.5839 47.1208 58.5151 47.2939 58.5151C47.4671 58.5151 47.6332 58.5839 47.7557 58.7063L49.7397 60.689C49.8621 60.8114 50.0282 60.8802 50.2014 60.8802C50.3745 60.8802 50.5406 60.8114 50.6631 60.689L52.233 59.119C52.3555 58.9966 52.4243 58.8305 52.4243 58.6573C52.4243 58.4841 52.3555 58.3181 52.233 58.1956L49.2486 55.2124C49.1879 55.1516 49.1399 55.0795 49.1072 55.0002C49.0745 54.9209 49.0577 54.8359 49.0579 54.75V53.0508C49.0579 52.7647 49.2433 52.5166 49.5085 52.4095C50.0218 52.1999 50.5032 51.9194 50.9387 51.5762C51.0472 51.4873 51.1799 51.4331 51.3195 51.4202C51.4592 51.4074 51.5995 51.4367 51.7223 51.5043L53.1996 52.3585C53.3494 52.4449 53.4589 52.5873 53.5039 52.7543L54.5958 56.8307C54.6179 56.9137 54.6562 56.9915 54.7085 57.0596C54.7607 57.1278 54.8259 57.185 54.9002 57.2279C54.9746 57.2709 55.0567 57.2988 55.1419 57.3099C55.227 57.3211 55.3135 57.3154 55.3965 57.2931L57.5411 56.7184C57.624 56.6961 57.7016 56.6577 57.7697 56.6054C57.8377 56.5531 57.8947 56.4879 57.9376 56.4136C57.9804 56.3392 58.0081 56.2572 58.0192 56.1721C58.0303 56.087 58.0245 56.0006 58.0022 55.9177L57.276 53.2088C57.2313 53.0415 57.2549 52.8633 57.3416 52.7134C57.4284 52.5635 57.5711 52.4542 57.7384 52.4095L60.4472 51.6833C60.6145 51.6386 60.7572 51.5292 60.8439 51.3793C60.9307 51.2294 60.9543 51.0512 60.9096 50.8839L60.3349 48.7393C60.3128 48.6563 60.2745 48.5785 60.2223 48.5103C60.17 48.4421 60.1049 48.385 60.0305 48.342C59.9561 48.2991 59.874 48.2712 59.7889 48.26C59.7037 48.2489 59.6172 48.2546 59.5343 48.2769L55.4592 49.3688C55.3762 49.3911 55.2897 49.3968 55.2045 49.3856C55.1193 49.3744 55.0372 49.3465 54.9628 49.3035L53.4817 48.4493C53.3623 48.3768 53.2672 48.2704 53.2086 48.1436C53.15 48.0168 53.1304 47.8754 53.1526 47.7375C53.2288 47.1889 53.2288 46.6325 53.1526 46.0839C53.1308 45.9461 53.1507 45.8049 53.2095 45.6783C53.2684 45.5518 53.3636 45.4456 53.483 45.3734L54.9628 44.5192C55.0372 44.4762 55.1193 44.4483 55.2045 44.4371C55.2897 44.4259 55.3762 44.4316 55.4592 44.4539L59.5343 45.5471C59.6172 45.5694 59.7037 45.5751 59.7889 45.564C59.874 45.5528 59.9561 45.5249 60.0305 45.482C60.1049 45.439 60.17 45.3819 60.2223 45.3137C60.2745 45.2455 60.3128 45.1677 60.3349 45.0847L60.9096 42.9401C60.9543 42.7728 60.9307 42.5946 60.8439 42.4447C60.7572 42.2948 60.6145 42.1854 60.4472 42.1407L57.7384 41.4145C57.6554 41.3924 57.5776 41.3541 57.5094 41.3019C57.4412 41.2496 57.384 41.1845 57.3411 41.1101C57.2981 41.0357 57.2703 40.9536 57.2591 40.8685C57.2479 40.7833 57.2537 40.6968 57.276 40.6139L58.0022 37.905C58.0469 37.7378 58.0234 37.5598 57.937 37.4099C57.8506 37.2601 57.7082 37.1506 57.5411 37.1056L55.3965 36.5309C55.3135 36.5086 55.227 36.5029 55.1419 36.5141C55.0567 36.5252 54.9746 36.5531 54.9002 36.596C54.8259 36.639 54.7607 36.6962 54.7085 36.7644C54.6562 36.8325 54.6179 36.9103 54.5958 36.9933L53.5039 41.0684C53.4818 41.1513 53.4435 41.2291 53.3913 41.2972C53.339 41.3654 53.2739 41.4225 53.1996 41.4655L51.7315 42.3131C51.6085 42.3806 51.4681 42.4096 51.3285 42.3966C51.1888 42.3836 51.0562 42.329 50.9478 42.24C50.5095 41.894 50.0245 41.6117 49.5072 41.4015C49.3768 41.3514 49.2644 41.2637 49.1841 41.1495C49.1039 41.0353 49.0595 40.8997 49.0566 40.7602V39.0727C49.0566 38.8998 49.1252 38.734 49.2472 38.6116L52.2317 35.6271C52.3542 35.5046 52.4229 35.3386 52.4229 35.1654C52.4229 34.9922 52.3542 34.8261 52.2317 34.7037L50.6618 33.1337C50.5393 33.0113 50.3732 32.9425 50.2001 32.9425C50.0269 32.9425 49.8608 33.0113 49.7384 33.1337L47.7543 35.1164C47.6319 35.2388 47.4658 35.3076 47.2926 35.3076C47.1195 35.3076 46.9534 35.2388 46.8309 35.1164L44.8482 33.1337C44.7258 33.0113 44.5597 32.9425 44.3865 32.9425C44.2133 32.9425 44.0473 33.0113 43.9248 33.1337L43.1411 33.9174C42.9622 34.5482 42.7545 35.1739 42.5168 35.7904L45.338 38.6116C45.4606 38.7338 45.5296 38.8996 45.53 39.0727V40.7419C45.53 41.0292 45.3406 41.2774 45.0729 41.3845C44.5439 41.5961 44.0515 41.8808 43.61 42.2269C43.5015 42.3153 43.369 42.3692 43.2296 42.3817C43.0902 42.3943 42.9503 42.365 42.8277 42.2975L41.3857 41.4655C41.3114 41.4225 41.2462 41.3654 41.194 41.2972C41.1418 41.2291 41.1035 41.1513 41.0814 41.0684L40.6608 39.4945C39.7158 40.9958 38.5926 42.3773 37.3158 43.6088C36.5914 44.3085 35.8208 44.9586 35.0092 45.5549L35.0105 45.5562ZM47.2711 44.4918C46.9495 44.4843 46.6296 44.5412 46.3303 44.6591C46.031 44.777 45.7583 44.9535 45.5282 45.1783C45.298 45.4031 45.1152 45.6717 44.9904 45.9682C44.8655 46.2647 44.8012 46.5831 44.8012 46.9048C44.8012 47.2265 44.8655 47.545 44.9904 47.8415C45.1152 48.1379 45.298 48.4065 45.5282 48.6313C45.7583 48.8561 46.031 49.0327 46.3303 49.1506C46.6296 49.2685 46.9495 49.3254 47.2711 49.3179C47.9013 49.3032 48.5009 49.0425 48.9414 48.5916C49.382 48.1407 49.6287 47.5352 49.6287 46.9048C49.6287 46.2744 49.382 45.669 48.9414 45.218C48.5009 44.7671 47.9013 44.5064 47.2711 44.4918Z" fill="#757575"/>
<defs>
<linearGradient id="paint0_linear_75_96" x1="21.5014" y1="3.67412" x2="21.5014" y2="43.7068" gradientUnits="userSpaceOnUse">
<stop stop-color="#2E7AF5"/>
<stop offset="1" stop-color="#0B57D0"/>
</linearGradient>
</defs>
</svg>
