<svg width="64" height="64" viewBox="0 0 64 64" fill="none" xmlns="http://www.w3.org/2000/svg">
<mask id="mask0_77_159" style="mask-type:luminance" maskUnits="userSpaceOnUse" x="1" y="0" width="63" height="64">
<path d="M1.01465 0.555115H63.7085V63.249H1.01465V0.555115Z" fill="white"/>
</mask>
<g mask="url(#mask0_77_159)">
<path fill-rule="evenodd" clip-rule="evenodd" d="M23.7884 22.9839C23.8331 23.0097 23.8723 23.0441 23.9037 23.0851C23.935 23.1261 23.958 23.173 23.9712 23.2229L25.2225 27.8923C25.2494 27.9925 25.315 28.0779 25.4049 28.1298C25.4948 28.1818 25.6016 28.1959 25.7018 28.1692L28.2253 27.4926C28.3255 27.4657 28.4109 27.4001 28.4629 27.3102C28.5148 27.2203 28.5289 27.1135 28.5022 27.0132L27.5683 23.5259C27.5416 23.4256 27.5557 23.3188 27.6076 23.229C27.6595 23.1391 27.745 23.0735 27.8452 23.0466L31.3325 22.1114C31.4328 22.0844 31.5182 22.0188 31.5701 21.929C31.622 21.8391 31.6362 21.7323 31.6094 21.632L30.9329 19.1086C30.9059 19.0084 30.8403 18.9229 30.7505 18.871C30.6606 18.8191 30.5538 18.805 30.4535 18.8317L25.7841 20.083C25.7344 20.0963 25.6824 20.0998 25.6313 20.093C25.5802 20.0863 25.531 20.0696 25.4863 20.0438L23.5402 18.9205C23.4671 18.8772 23.4093 18.8121 23.3749 18.7344C23.3405 18.6567 23.3312 18.5701 23.3482 18.4869C23.4891 17.7438 23.4896 16.9809 23.3495 16.2377C23.3329 16.1545 23.3426 16.0682 23.3772 15.9907C23.4118 15.9133 23.4697 15.8485 23.5428 15.8054L25.4863 14.6821C25.531 14.6563 25.5802 14.6396 25.6313 14.6329C25.6824 14.6262 25.7344 14.6296 25.7841 14.643L30.4535 15.8955C30.5033 15.9087 30.5551 15.912 30.6061 15.9052C30.6571 15.8984 30.7063 15.8816 30.7508 15.8557C30.7953 15.8299 30.8343 15.7955 30.8656 15.7546C30.8968 15.7137 30.9197 15.6671 30.9329 15.6173L31.6094 13.0952C31.6229 13.0455 31.6264 12.9936 31.6197 12.9425C31.6131 12.8914 31.5964 12.8421 31.5707 12.7974C31.545 12.7528 31.5107 12.7137 31.4698 12.6823C31.429 12.6509 31.3823 12.6279 31.3325 12.6146L27.8452 11.6807C27.7954 11.6673 27.7488 11.6443 27.7079 11.6129C27.667 11.5816 27.6328 11.5424 27.6071 11.4978C27.5813 11.4531 27.5647 11.4039 27.558 11.3528C27.5514 11.3017 27.5549 11.2498 27.5683 11.2L28.5022 7.71267C28.5289 7.61239 28.5148 7.5056 28.4629 7.41573C28.4109 7.32587 28.3255 7.26027 28.2253 7.23333L25.7018 6.55806C25.6016 6.53133 25.4948 6.54546 25.4049 6.59738C25.315 6.64929 25.2494 6.73473 25.2225 6.83496L23.9712 11.5043C23.9579 11.554 23.9348 11.6006 23.9034 11.6414C23.8721 11.6822 23.833 11.7164 23.7884 11.7421L21.8553 12.8588C21.7809 12.9005 21.6953 12.9179 21.6105 12.9085C21.5257 12.8992 21.446 12.8635 21.3825 12.8066C20.8075 12.3059 20.1427 11.9189 19.4233 11.6663C19.3432 11.639 19.2736 11.5875 19.224 11.519C19.1744 11.4505 19.1473 11.3682 19.1464 11.2836V9.0619C19.1465 8.95801 19.1879 8.85841 19.2614 8.785L22.6795 5.36688C22.716 5.33047 22.745 5.28722 22.7648 5.23959C22.7845 5.19196 22.7947 5.1409 22.7947 5.08933C22.7947 5.03776 22.7845 4.98669 22.7648 4.93906C22.745 4.89143 22.716 4.84818 22.6795 4.81178L20.8326 2.96492C20.7962 2.92839 20.753 2.8994 20.7053 2.87963C20.6577 2.85985 20.6066 2.84967 20.5551 2.84967C20.5035 2.84967 20.4524 2.85985 20.4048 2.87963C20.3572 2.8994 20.3139 2.92839 20.2775 2.96492L17.7254 5.51839C17.6519 5.59177 17.5523 5.63298 17.4485 5.63298C17.3446 5.63298 17.245 5.59177 17.1716 5.51839L14.6181 2.96492C14.5446 2.89154 14.445 2.85032 14.3412 2.85032C14.2374 2.85032 14.1378 2.89154 14.0643 2.96492L12.2174 4.81178C12.1809 4.84818 12.1519 4.89143 12.1321 4.93906C12.1124 4.98669 12.1022 5.03776 12.1022 5.08933C12.1022 5.1409 12.1124 5.19196 12.1321 5.23959C12.1519 5.28722 12.1809 5.33047 12.2174 5.36688L15.6356 8.785C15.7091 8.85841 15.7504 8.95801 15.7505 9.0619V11.2679C15.7505 11.4417 15.6343 11.5945 15.4697 11.6506C14.741 11.9007 14.067 12.2882 13.4844 12.7922C13.4208 12.8481 13.3414 12.883 13.2572 12.8919C13.1729 12.9008 13.088 12.8833 13.0142 12.8418L11.1072 11.7421C11.0626 11.7164 11.0235 11.6822 10.9922 11.6414C10.9608 11.6006 10.9378 11.554 10.9244 11.5043L9.67442 6.83496C9.66108 6.78519 9.63807 6.73854 9.60668 6.69768C9.5753 6.65681 9.53617 6.62254 9.49152 6.59682C9.44687 6.5711 9.3976 6.55444 9.3465 6.54779C9.29541 6.54114 9.24351 6.54463 9.19376 6.55806L6.67034 7.23333C6.62057 7.24666 6.57391 7.26967 6.53305 7.30106C6.49219 7.33244 6.45792 7.37158 6.4322 7.41622C6.40648 7.46087 6.38981 7.51015 6.38316 7.56124C6.37651 7.61233 6.38 7.66424 6.39344 7.71398L7.32862 11.2013C7.35536 11.3016 7.34122 11.4084 7.28931 11.4983C7.23739 11.5881 7.15195 11.6537 7.05172 11.6807L3.56438 12.6146C3.51461 12.6279 3.46795 12.6509 3.42709 12.6823C3.38623 12.7137 3.35196 12.7528 3.32624 12.7974C3.30052 12.8421 3.28385 12.8914 3.2772 12.9425C3.27055 12.9936 3.27404 13.0455 3.28748 13.0952L3.96274 15.6173C3.97593 15.6672 3.99885 15.714 4.03017 15.755C4.0615 15.796 4.10061 15.8304 4.14527 15.8563C4.18993 15.8821 4.23926 15.8989 4.29042 15.9056C4.34158 15.9124 4.39357 15.9089 4.4434 15.8955L9.11278 14.6443C9.21291 14.6176 9.31951 14.6317 9.40927 14.6834L11.311 15.7806C11.3841 15.8239 11.4419 15.889 11.4763 15.9667C11.5107 16.0444 11.52 16.131 11.503 16.2142C11.3575 16.9728 11.3584 17.7522 11.5056 18.5104C11.5226 18.5937 11.5133 18.6802 11.4789 18.7579C11.4445 18.8356 11.3867 18.9007 11.3136 18.944L9.40927 20.0438C9.31951 20.0955 9.21291 20.1096 9.11278 20.083L4.4434 18.8317C4.39365 18.8183 4.34175 18.8148 4.29066 18.8214C4.23956 18.8281 4.19028 18.8447 4.14564 18.8705C4.10099 18.8962 4.06186 18.9304 4.03048 18.9713C3.99909 19.0122 3.97607 19.0588 3.96274 19.1086L3.28748 21.632C3.26074 21.7323 3.27488 21.8391 3.32679 21.929C3.37871 22.0188 3.46415 22.0844 3.56438 22.1114L7.05172 23.0466C7.15195 23.0735 7.23739 23.1391 7.28931 23.229C7.34122 23.3188 7.35536 23.4256 7.32862 23.5259L6.39344 27.0132C6.3667 27.1135 6.38084 27.2203 6.43275 27.3102C6.48467 27.4001 6.57011 27.4657 6.67034 27.4926L9.19376 28.1692C9.24351 28.1826 9.29541 28.1861 9.3465 28.1794C9.3976 28.1728 9.44687 28.1561 9.49152 28.1304C9.53617 28.1047 9.5753 28.0704 9.60668 28.0295C9.63807 27.9887 9.66108 27.942 9.67442 27.8923L10.9257 23.2229C10.9389 23.173 10.9619 23.1261 10.9932 23.0851C11.0246 23.0441 11.0638 23.0097 11.1085 22.9839L13.0233 21.8776C13.0973 21.8363 13.1823 21.819 13.2665 21.8281C13.3508 21.8373 13.4301 21.8723 13.4935 21.9285C14.0682 22.4222 14.7369 22.8101 15.4697 23.0609C15.6343 23.1171 15.7505 23.2699 15.7505 23.4449V25.6653C15.7504 25.7692 15.7091 25.8688 15.6356 25.9422L12.2174 29.3603C12.1441 29.4338 12.1028 29.5334 12.1028 29.6372C12.1028 29.7411 12.1441 29.8407 12.2174 29.9141L14.0643 31.761C14.1378 31.8344 14.2374 31.8756 14.3412 31.8756C14.445 31.8756 14.5446 31.8344 14.6181 31.761L17.1716 29.2088C17.245 29.1355 17.3446 29.0942 17.4485 29.0942C17.5523 29.0942 17.6519 29.1355 17.7254 29.2088L20.2775 31.761C20.3139 31.7975 20.3572 31.8265 20.4048 31.8463C20.4524 31.8661 20.5035 31.8762 20.5551 31.8762C20.6066 31.8762 20.6577 31.8661 20.7053 31.8463C20.753 31.8265 20.7962 31.7975 20.8326 31.761L22.6795 29.9141C22.7529 29.8407 22.7941 29.7411 22.7941 29.6372C22.7941 29.5334 22.7529 29.4338 22.6795 29.3603L19.2614 25.9422C19.1879 25.8688 19.1465 25.7692 19.1464 25.6653V23.4279C19.1464 23.2542 19.26 23.1027 19.4246 23.0452C20.1392 22.7935 20.7999 22.4094 21.3721 21.9128C21.4354 21.8562 21.5149 21.8207 21.5995 21.8113C21.684 21.802 21.7693 21.8192 21.8436 21.8606L23.7897 22.9839H23.7884ZM17.4249 14.7226C16.7266 14.7226 16.0568 15.0001 15.563 15.4939C15.0692 15.9877 14.7918 16.6574 14.7918 17.3558C14.7918 18.0541 15.0692 18.7239 15.563 19.2177C16.0568 19.7115 16.7266 19.9889 17.4249 19.9889C18.1233 19.9889 18.793 19.7115 19.2869 19.2177C19.7807 18.7239 20.0581 18.0541 20.0581 17.3558C20.0581 16.6574 19.7807 15.9877 19.2869 15.4939C18.793 15.0001 18.1233 14.7226 17.4249 14.7226Z" fill="#757575"/>
<path fill-rule="evenodd" clip-rule="evenodd" d="M51.3397 14.3086L14.7683 50.88L13.3838 49.4955L49.9552 12.9241L51.3397 14.3086Z" fill="#ABABAB"/>
<path d="M28.6901 45.7313C28.0305 46.3909 27.8255 47.3574 27.8882 48.2874C28.0003 49.9409 28.7078 51.4978 29.8797 52.6697C31.0516 53.8416 32.6085 54.5491 34.262 54.6612C35.7557 54.7626 37.175 55.3503 38.3032 56.3344C39.5516 57.4238 41.1524 58.0241 42.8093 58.0241C44.4662 58.0241 46.067 57.4238 47.3154 56.3344C48.4438 55.3495 49.8636 54.7614 51.3579 54.6599C53.0114 54.5478 54.5683 53.8403 55.7402 52.6684C56.9121 51.4965 57.6196 49.9396 57.7318 48.2861C57.8336 46.7923 58.4217 45.3729 59.4062 44.2449C60.4957 42.9965 61.096 41.3957 61.096 39.7388C61.096 38.0819 60.4957 36.4811 59.4062 35.2327C58.421 34.1045 57.8324 32.6846 57.7305 31.1902C57.6183 29.5367 56.9108 27.9798 55.7389 26.8079C54.567 25.636 53.0101 24.9285 51.3566 24.8163C50.4266 24.7537 49.4614 24.96 48.8018 25.6196L28.6901 45.7313Z" fill="url(#paint0_radial_77_159)"/>
</g>
<defs>
<radialGradient id="paint0_radial_77_159" cx="0" cy="0" r="1" gradientUnits="userSpaceOnUse" gradientTransform="translate(38.4825 35.8438) rotate(64.537) scale(20.1319)">
<stop offset="0.016" stop-color="#FFBB29"/>
<stop offset="0.531" stop-color="#FCB224"/>
<stop offset="0.99" stop-color="#E47100"/>
</radialGradient>
</defs>
</svg>
