<svg width="64" height="64" viewBox="0 0 64 64" fill="none" xmlns="http://www.w3.org/2000/svg">
<mask id="mask0_75_126" style="mask-type:luminance" maskUnits="userSpaceOnUse" x="1" y="0" width="63" height="64">
<path d="M1.01465 0.555115H63.7085V63.249H1.01465V0.555115Z" fill="white"/>
</mask>
<g mask="url(#mask0_75_126)">
<path fill-rule="evenodd" clip-rule="evenodd" d="M30.3449 48.465C30.3394 48.4665 30.3343 48.4693 30.3302 48.4733C30.3261 48.4773 30.323 48.4823 30.3213 48.4877C30.3196 48.4932 30.3194 48.499 30.3205 48.5046C30.3217 48.5102 30.3242 48.5155 30.328 48.5198C31.1991 49.5176 31.7193 50.7732 31.8091 52.0947C31.9084 53.5567 32.534 54.9333 33.5702 55.9695C34.6064 57.0057 35.983 57.6313 37.445 57.7306C38.7665 57.8204 40.0221 58.3407 41.0199 59.2118C42.1239 60.1753 43.5396 60.7061 45.0049 60.7061C46.4702 60.7061 47.8859 60.1753 48.9898 59.2118C49.9876 58.3407 51.2432 57.8204 52.5647 57.7306C54.0267 57.6313 55.4033 57.0057 56.4395 55.9695C57.4757 54.9333 58.1014 53.5567 58.2006 52.0947C58.2904 50.7732 58.8107 49.5176 59.6818 48.5198C60.6456 47.4158 61.1767 45.9998 61.1767 44.5342C61.1767 43.0686 60.6456 41.6526 59.6818 40.5486C58.8109 39.5512 58.2907 38.296 58.2006 36.975C58.1017 35.5127 57.4761 34.1359 56.4399 33.0994C55.4037 32.0629 54.027 31.4371 52.5647 31.3378C51.2434 31.2484 49.9878 30.7286 48.9898 29.858C48.8553 29.7404 48.6476 29.8122 48.6019 29.986C47.4304 34.3887 45.1299 38.4094 41.9279 41.6504C38.7258 44.8914 34.7332 47.2403 30.3449 48.465Z" fill="url(#paint0_radial_75_126)"/>
<path fill-rule="evenodd" clip-rule="evenodd" d="M32.2608 30.9251C32.3351 30.968 32.4003 31.0252 32.4525 31.0933C32.5047 31.1614 32.543 31.2392 32.5651 31.3221L34.2788 37.7182C34.301 37.8011 34.3394 37.8787 34.3917 37.9468C34.444 38.0148 34.5092 38.0718 34.5836 38.1146C34.6579 38.1575 34.74 38.1852 34.8251 38.1963C34.9101 38.2074 34.9966 38.2016 35.0794 38.1793L37.9816 37.4021C38.0645 37.3799 38.1422 37.3415 38.2102 37.2892C38.2782 37.2369 38.3352 37.1717 38.3781 37.0973C38.4209 37.023 38.4486 36.9409 38.4597 36.8558C38.4708 36.7708 38.465 36.6843 38.4427 36.6015L37.1549 31.7949C37.1102 31.6276 37.1338 31.4494 37.2205 31.2995C37.3072 31.1496 37.4499 31.0403 37.6172 30.9956L42.4237 29.7065C42.5067 29.6845 42.5845 29.6463 42.6527 29.5942C42.7209 29.5421 42.7782 29.4771 42.8213 29.4029C42.8643 29.3286 42.8923 29.2467 42.9037 29.1616C42.915 29.0765 42.9095 28.99 42.8874 28.9071L42.109 26.0049C42.064 25.8378 41.9545 25.6955 41.8047 25.609C41.6548 25.5226 41.4768 25.4991 41.3096 25.5438L34.9122 27.2575C34.8293 27.2798 34.7427 27.2855 34.6576 27.2743C34.5724 27.2631 34.4903 27.2352 34.4159 27.1922L31.6378 25.5882C31.5149 25.5145 31.4181 25.4043 31.3608 25.273C31.3034 25.1417 31.2884 24.9958 31.3178 24.8555C31.5201 23.8214 31.5209 22.7579 31.3204 21.7234C31.2913 21.5834 31.3065 21.4378 31.3638 21.3067C31.4211 21.1757 31.5178 21.0657 31.6404 20.992L34.4172 19.3894C34.5671 19.3029 34.7451 19.2794 34.9122 19.3241L41.3096 21.0377C41.4769 21.0824 41.6551 21.0588 41.805 20.9721C41.9549 20.8853 42.0643 20.7427 42.109 20.5754L42.8861 17.6745C42.9308 17.5073 42.9074 17.3293 42.8209 17.1794C42.7345 17.0295 42.5921 16.9201 42.4251 16.8751L37.6159 15.586C37.4489 15.541 37.3065 15.4315 37.22 15.2817C37.1336 15.1318 37.1101 14.9538 37.1549 14.7866L38.4427 9.98009C38.465 9.89715 38.4707 9.81064 38.4596 9.72549C38.4484 9.64034 38.4205 9.55822 38.3776 9.48385C38.3346 9.40948 38.2774 9.34431 38.2093 9.29208C38.1411 9.23984 38.0633 9.20156 37.9803 9.17943L35.0794 8.40229C34.9966 8.37996 34.9101 8.37417 34.8251 8.38526C34.74 8.39635 34.6579 8.42409 34.5836 8.46691C34.5092 8.50973 34.444 8.56678 34.3917 8.6348C34.3394 8.70283 34.301 8.78049 34.2788 8.86335L32.5651 15.2594C32.543 15.3424 32.5047 15.4201 32.4525 15.4883C32.4003 15.5564 32.3351 15.6136 32.2608 15.6565L29.4997 17.25C29.3738 17.32 29.2291 17.3488 29.086 17.3324C28.9428 17.316 28.8084 17.2552 28.7016 17.1585C27.9047 16.4565 26.9783 15.9169 25.9744 15.5703C25.8383 15.5255 25.7195 15.4395 25.6345 15.3241C25.5496 15.2087 25.5026 15.0697 25.5003 14.9264V11.7551C25.5007 11.5821 25.5698 11.4162 25.6923 11.294L30.3761 6.6116C30.4985 6.48913 30.5673 6.32305 30.5673 6.14988C30.5673 5.97671 30.4985 5.81064 30.3761 5.68817L28.251 3.56311C28.1903 3.50229 28.1183 3.45404 28.0389 3.42112C27.9596 3.38819 27.8745 3.37125 27.7886 3.37125C27.7027 3.37125 27.6177 3.38819 27.5383 3.42112C27.459 3.45404 27.3869 3.50229 27.3263 3.56311L23.8063 7.08311C23.6838 7.20554 23.5177 7.27431 23.3446 7.27431C23.1714 7.27431 23.0053 7.20554 22.8829 7.08311L19.3615 3.56311C19.2391 3.44068 19.073 3.3719 18.8998 3.3719C18.7267 3.3719 18.5606 3.44068 18.4381 3.56311L16.3144 5.68817C16.1919 5.81064 16.1232 5.97671 16.1232 6.14988C16.1232 6.32305 16.1919 6.48913 16.3144 6.6116L20.9981 11.294C21.1202 11.4164 21.1888 11.5822 21.1888 11.7551V14.9042C21.1864 15.0483 21.1388 15.1881 21.0529 15.3038C20.9669 15.4196 20.8468 15.5054 20.7095 15.5494C19.6931 15.8918 18.7543 16.4316 17.947 17.1376C17.8402 17.2338 17.7059 17.2942 17.5631 17.3104C17.4202 17.3265 17.2759 17.2977 17.1503 17.2278L14.427 15.6552C14.2772 15.5688 14.1677 15.4264 14.1227 15.2594L12.4104 8.86335C12.3654 8.69629 12.2559 8.55391 12.1061 8.46747C11.9562 8.38103 11.7781 8.35759 11.611 8.40229L8.70881 9.17943C8.54175 9.22442 8.39937 9.33387 8.31293 9.48373C8.22648 9.6336 8.20304 9.81165 8.24775 9.97878L9.53559 14.7866C9.55789 14.8696 9.56363 14.9561 9.55245 15.0412C9.54128 15.1264 9.51342 15.2085 9.47048 15.2829C9.42753 15.3572 9.37033 15.4224 9.30217 15.4746C9.234 15.5269 9.1562 15.5651 9.07322 15.5873L4.26669 16.8751C4.09939 16.9198 3.95669 17.0291 3.86999 17.179C3.78328 17.3289 3.75966 17.5071 3.80432 17.6745L4.58146 20.5767C4.60373 20.6595 4.64211 20.7372 4.69441 20.8052C4.74671 20.8732 4.81189 20.9303 4.88625 20.9731C4.96061 21.0159 5.04267 21.0437 5.12775 21.0548C5.21284 21.0658 5.29927 21.0601 5.38212 21.0377L11.7795 19.3241C11.8625 19.3018 11.949 19.2961 12.0342 19.3073C12.1193 19.3185 12.2015 19.3464 12.2758 19.3894L14.9926 20.9567C15.1157 21.0308 15.2126 21.1415 15.2697 21.2734C15.3268 21.4052 15.3414 21.5516 15.3113 21.6921C15.103 22.747 15.1044 23.8325 15.3152 24.8869C15.3452 25.0275 15.3304 25.174 15.2731 25.3058C15.2157 25.4377 15.1185 25.5483 14.9952 25.6222L12.2745 27.1935C12.2002 27.2365 12.118 27.2644 12.0329 27.2756C11.9477 27.2868 11.8612 27.2811 11.7782 27.2588L5.38212 25.5438C5.29918 25.5215 5.21267 25.5158 5.12752 25.527C5.04236 25.5381 4.96025 25.566 4.88588 25.6089C4.81151 25.6519 4.74634 25.7091 4.69411 25.7773C4.64187 25.8454 4.60359 25.9232 4.58146 26.0062L3.80432 28.9071C3.75966 29.0744 3.78328 29.2526 3.86999 29.4025C3.95669 29.5524 4.09939 29.6617 4.26669 29.7065L9.07452 30.9956C9.24182 31.0403 9.38452 31.1496 9.47123 31.2995C9.55793 31.4494 9.58155 31.6276 9.53689 31.7949L8.24775 36.6015C8.22544 36.6844 8.21971 36.7709 8.23088 36.8561C8.24205 36.9412 8.26991 37.0233 8.31286 37.0977C8.3558 37.1721 8.413 37.2372 8.48117 37.2895C8.54933 37.3417 8.62714 37.38 8.71012 37.4021L11.6123 38.1793C11.7795 38.224 11.9575 38.2005 12.1074 38.1141C12.2572 38.0276 12.3667 37.8853 12.4117 37.7182L14.1266 31.3221C14.1487 31.2392 14.187 31.1614 14.2392 31.0933C14.2915 31.0252 14.3566 30.968 14.4309 30.9251L17.166 29.346C17.2912 29.276 17.4353 29.247 17.5779 29.2629C17.7205 29.2788 17.8546 29.3389 17.9614 29.4348C18.7581 30.127 19.6894 30.6678 20.7108 31.0113C20.8483 31.0553 20.9685 31.1414 21.0545 31.2574C21.1405 31.3734 21.188 31.5134 21.1901 31.6578V34.8265C21.1901 34.9993 21.1215 35.1651 20.9994 35.2875L16.3157 39.97C16.1932 40.0924 16.1245 40.2585 16.1245 40.4317C16.1245 40.6048 16.1932 40.7709 16.3157 40.8934L18.4394 43.0185C18.5619 43.1409 18.728 43.2097 18.9011 43.2097C19.0743 43.2097 19.2404 43.1409 19.3628 43.0185L22.8842 39.4985C23.0066 39.376 23.1727 39.3072 23.3459 39.3072C23.519 39.3072 23.6851 39.376 23.8076 39.4985L27.3276 43.0185C27.3883 43.0793 27.4603 43.1275 27.5397 43.1604C27.619 43.1934 27.7041 43.2103 27.79 43.2103C27.8759 43.2103 27.9609 43.1934 28.0403 43.1604C28.1196 43.1275 28.1917 43.0793 28.2523 43.0185L30.3761 40.8947C30.4985 40.7722 30.5673 40.6062 30.5673 40.433C30.5673 40.2598 30.4985 40.0937 30.3761 39.9713L25.6923 35.2875C25.5698 35.1653 25.5007 34.9995 25.5003 34.8265V31.6343C25.5003 31.3404 25.6962 31.0857 25.9744 30.9904C26.9729 30.6454 27.8947 30.1095 28.6886 29.4126C28.7953 29.3162 28.9294 29.2555 29.0723 29.2391C29.2151 29.2227 29.3595 29.2514 29.4853 29.3211L32.2608 30.9251ZM23.3139 19.4364C22.2941 19.4361 21.3159 19.8409 20.5945 20.5617C19.8731 21.2826 19.4677 22.2605 19.4673 23.2803C19.467 24.3001 19.8718 25.2783 20.5927 25.9997C21.3135 26.7211 22.2914 27.1265 23.3113 27.1269C23.8162 27.1269 24.3163 27.0276 24.7828 26.8344C25.2494 26.6413 25.6733 26.3581 26.0304 26.0011C26.3876 25.6441 26.6709 25.2202 26.8642 24.7537C27.0575 24.2873 27.1571 23.7873 27.1571 23.2823C27.1572 22.7773 27.0578 22.2773 26.8647 21.8107C26.6715 21.3442 26.3884 20.9202 26.0314 20.5631C25.6744 20.206 25.2505 19.9227 24.784 19.7294C24.3175 19.536 23.8188 19.4365 23.3139 19.4364Z" fill="#757575"/>
</g>
<defs>
<radialGradient id="paint0_radial_75_126" cx="0" cy="0" r="1" gradientUnits="userSpaceOnUse" gradientTransform="translate(41.1764 41.091) rotate(64.537) scale(17.8041)">
<stop offset="0.016" stop-color="#FFBB29"/>
<stop offset="0.531" stop-color="#FCB224"/>
<stop offset="0.99" stop-color="#E47100"/>
</radialGradient>
</defs>
</svg>
