<svg width="64" height="64" viewBox="0 0 64 64" fill="none" xmlns="http://www.w3.org/2000/svg">
<path d="M32.5747 60.6589H32.5146C28.5662 60.6589 25.374 57.4798 25.374 53.5693C25.374 52.6158 25.5634 51.7068 25.9069 50.8774C25.9696 50.7246 26.1381 50.5887 26.3902 50.56C29.9373 50.1583 33.3674 49.047 36.4761 47.2921L36.4839 47.2882L37.0299 46.9708L37.0364 46.9668C40.7633 44.7416 43.8965 41.6478 46.1688 37.9494C46.2112 37.8747 46.2688 37.8097 46.3379 37.7587C46.407 37.7076 46.4859 37.6716 46.5698 37.6529C47.2903 37.5179 48.0218 37.4501 48.7549 37.4504C55.2137 37.4504 60.4434 42.6501 60.4434 49.054C60.4434 55.3077 55.4579 60.4121 49.2108 60.6498L48.9691 60.6589H32.5747Z" fill="url(#paint0_radial_75_121)"/>
<path d="M32.5747 60.6589H32.5146C28.5662 60.6589 25.374 57.4798 25.374 53.5693C25.374 52.6158 25.5634 51.7068 25.9069 50.8774C25.9696 50.7246 26.1381 50.5887 26.3902 50.56C29.9373 50.1583 33.3674 49.047 36.4761 47.2921L36.4839 47.2882L37.0299 46.9708L37.0364 46.9668C40.7633 44.7416 43.8965 41.6478 46.1688 37.9494C46.2112 37.8747 46.2688 37.8097 46.3379 37.7587C46.407 37.7076 46.4859 37.6716 46.5698 37.6529C47.2903 37.5179 48.0218 37.4501 48.7549 37.4504C55.2137 37.4504 60.4434 42.6501 60.4434 49.054C60.4434 55.3077 55.4579 60.4121 49.2108 60.6498L48.9691 60.6589H32.5747Z" stroke="url(#paint1_linear_75_121)"/>
<path d="M32.5747 60.6589H32.5146C28.5662 60.6589 25.374 57.4798 25.374 53.5693C25.374 52.6158 25.5634 51.7068 25.9069 50.8774C25.9696 50.7246 26.1381 50.5887 26.3902 50.56C29.9373 50.1583 33.3674 49.047 36.4761 47.2921L36.4839 47.2882L37.0299 46.9708L37.0364 46.9668C40.7633 44.7416 43.8965 41.6478 46.1688 37.9494C46.2112 37.8747 46.2688 37.8097 46.3379 37.7587C46.407 37.7076 46.4859 37.6716 46.5698 37.6529C47.2903 37.5179 48.0218 37.4501 48.7549 37.4504C55.2137 37.4504 60.4434 42.6501 60.4434 49.054C60.4434 55.3077 55.4579 60.4121 49.2108 60.6498L48.9691 60.6589H32.5747Z" stroke="url(#paint2_linear_75_121)"/>
<path fill-rule="evenodd" clip-rule="evenodd" d="M35.0693 38.8454C34.902 38.8901 34.7238 38.8664 34.5739 38.7797C34.424 38.693 34.3147 38.5503 34.27 38.383L32.5563 31.9883C32.5342 31.9053 32.4959 31.8276 32.4437 31.7594C32.3915 31.6913 32.3264 31.6341 32.252 31.5912L29.4765 29.9886C29.3508 29.9187 29.2064 29.8899 29.0635 29.9063C28.9206 29.9227 28.7864 29.9834 28.6798 30.08C27.8859 30.7769 26.9641 31.3128 25.9657 31.6578C25.8295 31.7026 25.7107 31.7886 25.6257 31.904C25.5408 32.0194 25.4939 32.1584 25.4915 32.3017V35.4913C25.4916 35.5772 25.5085 35.6622 25.5415 35.7416C25.5744 35.8209 25.6227 35.893 25.6835 35.9536L30.3673 40.6361C30.4897 40.7586 30.5585 40.9246 30.5585 41.0978C30.5585 41.271 30.4897 41.4371 30.3673 41.5595L28.2435 43.6846C28.1211 43.807 27.955 43.8758 27.7818 43.8758C27.6086 43.8758 27.4426 43.807 27.3201 43.6846L23.7988 40.1646C23.6763 40.0422 23.5103 39.9734 23.3371 39.9734C23.1639 39.9734 22.9978 40.0422 22.8754 40.1646L19.3541 43.6846C19.2316 43.807 19.0655 43.8758 18.8923 43.8758C18.7192 43.8758 18.5531 43.807 18.4306 43.6846L16.3069 41.5595C16.1844 41.4371 16.1157 41.271 16.1157 41.0978C16.1157 40.9246 16.1844 40.7586 16.3069 40.6361L20.9906 35.9536C21.1127 35.8313 21.1813 35.6655 21.1813 35.4926V32.3239C21.1792 32.1795 21.1318 32.0395 21.0458 31.9235C20.9598 31.8075 20.8395 31.7214 20.702 31.6774C19.6912 31.3369 18.757 30.8013 17.9526 30.1009C17.8458 30.005 17.7117 29.9449 17.5691 29.929C17.4265 29.9131 17.2825 29.9421 17.1572 30.0121L14.4221 31.5912C14.3478 31.6341 14.2827 31.6913 14.2305 31.7594C14.1782 31.8276 14.14 31.9053 14.1178 31.9883L12.4029 38.3843C12.3579 38.5514 12.2484 38.6938 12.0986 38.7802C11.9487 38.8667 11.7707 38.8901 11.6035 38.8454L8.70133 38.0683C8.53427 38.0233 8.39189 37.9138 8.30544 37.764C8.219 37.6141 8.19556 37.436 8.24027 37.2689L9.5281 32.4624C9.55041 32.3794 9.55614 32.2929 9.54497 32.2078C9.5338 32.1226 9.50594 32.0405 9.46299 31.9661C9.42005 31.8918 9.36285 31.8266 9.29468 31.7744C9.22652 31.7221 9.14872 31.6839 9.06574 31.6617L4.2579 30.3726C4.0906 30.3279 3.9479 30.2186 3.8612 30.0687C3.77449 29.9188 3.75087 29.7406 3.79553 29.5732L4.57267 26.6723C4.5948 26.5894 4.63308 26.5116 4.68532 26.4434C4.73756 26.3752 4.80272 26.318 4.87709 26.2751C4.95146 26.2321 5.03358 26.2043 5.11873 26.1931C5.20388 26.1819 5.29039 26.1877 5.37333 26.21L11.7707 27.9236C11.9379 27.9683 12.1159 27.9448 12.2657 27.8583L14.9864 26.2883C15.11 26.2144 15.2073 26.1035 15.2647 25.9714C15.3221 25.8393 15.3367 25.6925 15.3064 25.5517C15.0955 24.4978 15.0942 23.4126 15.3025 22.3582C15.3325 22.2176 15.3177 22.0711 15.2603 21.9392C15.203 21.8074 15.1058 21.6968 14.9825 21.6229L12.2657 20.0555C12.1159 19.969 11.9379 19.9456 11.7707 19.9902L5.37333 21.7039C5.29048 21.7262 5.20405 21.732 5.11896 21.7209C5.03388 21.7098 4.95182 21.682 4.87746 21.6392C4.80311 21.5964 4.73792 21.5394 4.68562 21.4713C4.63332 21.4033 4.59494 21.3257 4.57267 21.2428L3.79553 18.3406C3.75087 18.1733 3.77449 17.9951 3.8612 17.8452C3.9479 17.6953 4.0906 17.5859 4.2579 17.5412L9.06443 16.2521C9.23173 16.2074 9.37442 16.0981 9.46113 15.9482C9.54784 15.7983 9.57146 15.6201 9.5268 15.4527L8.23896 10.6462C8.21663 10.5634 8.21084 10.4769 8.22193 10.3919C8.23302 10.3068 8.26076 10.2247 8.30358 10.1504C8.3464 10.076 8.40345 10.0108 8.47147 9.95851C8.5395 9.90621 8.61716 9.86783 8.70002 9.84557L11.6022 9.06712C11.7695 9.02246 11.9477 9.04608 12.0976 9.13278C12.2475 9.21949 12.3569 9.36218 12.4016 9.52948L14.1152 15.9243C14.1373 16.0072 14.1756 16.085 14.2278 16.1531C14.2801 16.2212 14.3452 16.2784 14.4195 16.3213L17.1441 17.8939C17.3988 18.0402 17.7188 17.9984 17.9395 17.8038C18.7468 17.0977 19.6856 16.5579 20.702 16.2155C20.8393 16.1716 20.9594 16.0857 21.0454 15.97C21.1314 15.8542 21.1789 15.7145 21.1813 15.5703V12.4212C21.1815 12.3354 21.1647 12.2504 21.132 12.1711C21.0993 12.0917 21.0512 12.0196 20.9906 11.9589L16.3069 7.27642C16.2461 7.21576 16.1978 7.14369 16.1649 7.06435C16.132 6.98501 16.115 6.89996 16.115 6.81406C16.115 6.72816 16.132 6.6431 16.1649 6.56376C16.1978 6.48442 16.2461 6.41235 16.3069 6.35169L18.4306 4.22793C18.5531 4.1055 18.7192 4.03673 18.8923 4.03673C19.0655 4.03673 19.2316 4.1055 19.3541 4.22793L22.8754 7.74793C22.9978 7.87036 23.1639 7.93914 23.3371 7.93914C23.5103 7.93914 23.6763 7.87036 23.7988 7.74793L27.3188 4.22793C27.3795 4.16712 27.4515 4.11886 27.5309 4.08594C27.6102 4.05302 27.6953 4.03607 27.7812 4.03607C27.8671 4.03607 27.9521 4.05302 28.0315 4.08594C28.1108 4.11886 28.1829 4.16712 28.2435 4.22793L30.3673 6.35169C30.4281 6.41235 30.4764 6.48442 30.5093 6.56376C30.5422 6.6431 30.5591 6.72816 30.5591 6.81406C30.5591 6.89996 30.5422 6.98501 30.5093 7.06435C30.4764 7.14369 30.4281 7.21576 30.3673 7.27642L25.6835 11.9589C25.561 12.081 25.4919 12.2469 25.4915 12.4199V15.5912C25.4915 15.8838 25.6874 16.1398 25.9657 16.2351C26.9695 16.5818 27.896 17.1213 28.6928 17.8234C28.9149 18.0193 29.2349 18.0624 29.4896 17.9148L32.252 16.3213C32.3264 16.2784 32.3915 16.2212 32.4437 16.1531C32.4959 16.085 32.5342 16.0072 32.5563 15.9243L34.27 9.52818C34.2923 9.44532 34.3306 9.36765 34.3829 9.29963C34.4352 9.23161 34.5004 9.17456 34.5748 9.13174C34.6491 9.08892 34.7312 9.06117 34.8163 9.05009C34.9014 9.039 34.9878 9.04478 35.0706 9.06712L37.9715 9.84426C38.1388 9.88897 38.2815 9.99829 38.3682 10.1482C38.4549 10.2981 38.4786 10.4763 38.4339 10.6436L37.1461 15.4501C37.1237 15.533 37.1179 15.6194 37.129 15.7045C37.1401 15.7896 37.1679 15.8716 37.2107 15.946C37.2535 16.0204 37.3106 16.0855 37.3786 16.1378C37.4466 16.1901 37.5243 16.2285 37.6071 16.2508L42.4163 17.5399C42.5833 17.5849 42.7257 17.6944 42.8122 17.8442C42.8986 17.9941 42.922 18.1721 42.8773 18.3393L42.1002 21.2402C42.0555 21.4075 41.9462 21.5502 41.7963 21.6369C41.6464 21.7236 41.4682 21.7472 41.3008 21.7025L34.9034 19.9876C34.8205 19.9653 34.7339 19.9596 34.6488 19.9708C34.5636 19.982 34.4815 20.0099 34.4071 20.0529L31.6316 21.6555C31.509 21.7292 31.4123 21.8392 31.355 21.9702C31.2977 22.1013 31.2825 22.2469 31.3116 22.387C31.5123 23.4219 31.5114 24.4858 31.309 25.5203C31.2515 25.8077 31.3743 26.1068 31.629 26.2531L34.4071 27.857C34.4815 27.9 34.5636 27.9279 34.6488 27.9391C34.7339 27.9503 34.8205 27.9446 34.9034 27.9223L41.3008 26.2087C41.468 26.164 41.646 26.1874 41.7959 26.2738C41.9458 26.3603 42.0552 26.5027 42.1002 26.6697L42.8786 29.5719C42.9233 29.7392 42.8997 29.9174 42.813 30.0673C42.7263 30.2172 42.5836 30.3266 42.4163 30.3713L37.6084 31.6591C37.5254 31.6812 37.4476 31.7195 37.3795 31.7718C37.3113 31.824 37.2541 31.8892 37.2112 31.9635C37.1682 32.0379 37.1404 32.12 37.1292 32.2052C37.118 32.2903 37.1238 32.3768 37.1461 32.4598L38.4339 37.2663C38.4562 37.3491 38.462 37.4356 38.4509 37.5207C38.4398 37.6057 38.4121 37.6878 38.3693 37.7622C38.3265 37.8365 38.2694 37.9017 38.2014 37.954C38.1334 38.0063 38.0557 38.0447 37.9728 38.067L35.0706 38.8441L35.0693 38.8454ZM19.4599 23.9465C19.46 22.9266 19.8653 21.9487 20.5866 21.2277C20.9437 20.8707 21.3676 20.5875 21.8342 20.3943C22.3007 20.2012 22.8008 20.1018 23.3057 20.1019C23.8107 20.102 24.3107 20.2015 24.7772 20.3948C25.2437 20.5882 25.6675 20.8715 26.0245 21.2286C26.3815 21.5857 26.6647 22.0097 26.8579 22.4762C27.051 22.9428 27.1504 23.4428 27.1503 23.9478C27.1503 24.9676 26.7452 25.9456 26.0241 26.6668C25.3029 27.3879 24.3249 27.793 23.3051 27.793C22.2853 27.793 21.3072 27.3879 20.5861 26.6668C19.865 25.9456 19.4599 24.9663 19.4599 23.9465Z" fill="#757575"/>
<defs>
<radialGradient id="paint0_radial_75_121" cx="0" cy="0" r="1" gradientUnits="userSpaceOnUse" gradientTransform="translate(55.0341 59.226) rotate(-134.75) scale(28.5253 68.62)">
<stop stop-color="#B4B4B4"/>
<stop offset="0.298" stop-color="#B4B4B4"/>
<stop offset="1" stop-color="#E3E3E3"/>
</radialGradient>
<linearGradient id="paint1_linear_75_121" x1="47.6526" y1="48.2638" x2="53.1879" y2="60.126" gradientUnits="userSpaceOnUse">
<stop stop-color="#80868B" stop-opacity="0"/>
<stop offset="1" stop-color="#80868B"/>
</linearGradient>
<linearGradient id="paint2_linear_75_121" x1="56.7471" y1="36.7974" x2="27.8831" y2="47.8681" gradientUnits="userSpaceOnUse">
<stop stop-color="#81878C"/>
<stop offset="1" stop-color="#C3C5C6" stop-opacity="0"/>
</linearGradient>
</defs>
</svg>
