<svg width="64" height="64" viewBox="0 0 64 64" fill="none" xmlns="http://www.w3.org/2000/svg">
<mask id="mask0_75_133" style="mask-type:luminance" maskUnits="userSpaceOnUse" x="1" y="0" width="63" height="64">
<path d="M1.01465 0.846375H63.7085V63.5403H1.01465V0.846375Z" fill="white"/>
</mask>
<g mask="url(#mask0_75_133)">
<path fill-rule="evenodd" clip-rule="evenodd" d="M36.8884 45.9102C35.7782 49.8899 36.8375 54.3177 40.0702 57.4432C44.8793 62.0904 52.6782 62.0904 57.4886 57.4432C62.2977 52.7935 62.2977 45.2571 57.4886 40.6073L57.4102 40.5342L48.9596 32.3657C48.9109 32.3186 48.8458 32.2923 48.7781 32.2923C48.7103 32.2923 48.6452 32.3186 48.5965 32.3657L47.5621 33.3649C45.4442 38.5847 41.7016 42.9836 36.8884 45.9102Z" fill="url(#paint0_linear_75_133)"/>
<path fill-rule="evenodd" clip-rule="evenodd" d="M32.2519 31.2085C32.3262 31.2514 32.3913 31.3086 32.4436 31.3767C32.4958 31.4448 32.5341 31.5226 32.5562 31.6055L34.2698 38.0003C34.292 38.0833 34.3302 38.1611 34.3825 38.2293C34.4347 38.2974 34.4999 38.3546 34.5742 38.3976C34.6486 38.4405 34.7307 38.4684 34.8159 38.4796C34.901 38.4907 34.9875 38.485 35.0705 38.4627L37.9727 37.6842C38.1397 37.6392 38.2821 37.5298 38.3686 37.3799C38.455 37.2301 38.4784 37.052 38.4337 36.8849L37.1459 32.0784C37.1236 31.9954 37.1179 31.9089 37.129 31.8238C37.1402 31.7386 37.1681 31.6565 37.211 31.5821C37.254 31.5078 37.3112 31.4426 37.3793 31.3904C37.4475 31.3381 37.5253 31.2998 37.6083 31.2777L42.4148 29.9899C42.4978 29.9679 42.5756 29.9297 42.6438 29.8777C42.712 29.8256 42.7693 29.7605 42.8123 29.6863C42.8554 29.6121 42.8834 29.5301 42.8947 29.445C42.9061 29.3599 42.9006 29.2735 42.8785 29.1905L42.1 26.2883C42.055 26.1213 41.9456 25.9789 41.7957 25.8924C41.6459 25.806 41.4678 25.7826 41.3007 25.8273L34.9033 27.5409C34.8203 27.5632 34.7338 27.5689 34.6486 27.5577C34.5635 27.5465 34.4813 27.5186 34.407 27.4756L31.6288 25.8717C31.506 25.7979 31.4092 25.6877 31.3518 25.5564C31.2945 25.4251 31.2795 25.2792 31.3088 25.1389C31.5112 24.1044 31.5121 23.0405 31.3115 22.0055C31.2824 21.8655 31.2975 21.7199 31.3549 21.5888C31.4122 21.4578 31.5088 21.3478 31.6315 21.2741L34.407 19.6715C34.4813 19.6285 34.5635 19.6006 34.6486 19.5894C34.7338 19.5782 34.8203 19.5839 34.9033 19.6062L41.3007 21.3198C41.4678 21.3645 41.6459 21.3411 41.7957 21.2547C41.9456 21.1682 42.055 21.0258 42.1 20.8588L42.8772 17.9566C42.9219 17.7894 42.8984 17.6114 42.812 17.4615C42.7256 17.3116 42.5832 17.2022 42.4161 17.1572L37.607 15.8694C37.5241 15.8471 37.4464 15.8087 37.3784 15.7564C37.3104 15.7041 37.2533 15.639 37.2105 15.5646C37.1677 15.4902 37.14 15.4082 37.1289 15.3231C37.1178 15.238 37.1236 15.1516 37.1459 15.0687L38.4337 10.2622C38.4561 10.1794 38.4619 10.0929 38.4508 10.0078C38.4397 9.92275 38.4119 9.84069 38.3691 9.76633C38.3263 9.69198 38.2693 9.62679 38.2012 9.57449C38.1332 9.52219 38.0555 9.48381 37.9727 9.46154L35.0692 8.68571C34.9862 8.6634 34.8997 8.65767 34.8146 8.66884C34.7294 8.68001 34.6473 8.70787 34.5729 8.75082C34.4986 8.79376 34.4334 8.85096 34.3812 8.91913C34.3289 8.98729 34.2906 9.0651 34.2685 9.14808L32.5562 15.5429C32.5112 15.7099 32.4017 15.8522 32.2519 15.9386L29.4894 17.5321C29.3637 17.6018 29.2192 17.6305 29.0764 17.6141C28.9335 17.5977 28.7994 17.537 28.6927 17.4406C27.8958 16.7385 26.9694 16.199 25.9655 15.8524C25.8296 15.8077 25.7109 15.7218 25.626 15.6067C25.541 15.4916 25.494 15.3529 25.4914 15.2098V12.0385C25.4914 11.9526 25.5084 11.8676 25.5413 11.7882C25.5743 11.7089 25.6225 11.6368 25.6834 11.5762L30.3671 6.89371C30.4896 6.77124 30.5583 6.60516 30.5583 6.43199C30.5583 6.25883 30.4896 6.09275 30.3671 5.97028L28.2434 3.84652C28.1827 3.78571 28.1106 3.73746 28.0313 3.70453C27.952 3.67161 27.8669 3.65466 27.781 3.65466C27.6951 3.65466 27.6101 3.67161 27.5307 3.70453C27.4514 3.73746 27.3793 3.78571 27.3186 3.84652L23.7986 7.36652C23.6762 7.48895 23.5101 7.55773 23.3369 7.55773C23.1638 7.55773 22.9977 7.48895 22.8752 7.36652L19.3539 3.84652C19.2314 3.72409 19.0654 3.65532 18.8922 3.65532C18.719 3.65532 18.5529 3.72409 18.4305 3.84652L16.3067 5.96897C16.1843 6.09144 16.1155 6.25752 16.1155 6.43069C16.1155 6.60386 16.1843 6.76993 16.3067 6.8924L20.9905 11.5749C21.0511 11.6356 21.0991 11.7077 21.1318 11.7871C21.1646 11.8664 21.1813 11.9514 21.1812 12.0372V15.185C21.179 15.3294 21.1316 15.4694 21.0456 15.5854C20.9596 15.7014 20.8394 15.7875 20.7018 15.8315C19.6855 16.174 18.7467 16.7137 17.9394 17.4197C17.8325 17.5159 17.6983 17.5763 17.5554 17.5925C17.4126 17.6087 17.2683 17.5798 17.1426 17.5099L14.4194 15.9373C14.345 15.8944 14.2799 15.8372 14.2277 15.7691C14.1755 15.7009 14.1372 15.6232 14.115 15.5402L12.4014 9.14677C12.3567 8.97947 12.2474 8.83678 12.0975 8.75007C11.9476 8.66336 11.7694 8.63974 11.6021 8.6844L8.69986 9.46285C8.5328 9.50784 8.39042 9.61728 8.30398 9.76715C8.21754 9.91702 8.1941 10.0951 8.2388 10.2622L9.52664 15.0687C9.54895 15.1517 9.55468 15.2382 9.54351 15.3233C9.53234 15.4085 9.50448 15.4906 9.46153 15.565C9.41858 15.6393 9.36139 15.7045 9.29322 15.7567C9.22505 15.809 9.14725 15.8473 9.06427 15.8694L4.25774 17.1572C4.17476 17.1793 4.09696 17.2176 4.02879 17.2699C3.96062 17.3221 3.90343 17.3873 3.86048 17.4616C3.81753 17.536 3.78968 17.6181 3.7785 17.7033C3.76733 17.7884 3.77306 17.8749 3.79537 17.9579L4.57252 20.8601C4.59478 20.9429 4.63316 21.0206 4.68546 21.0886C4.73776 21.1566 4.80295 21.2137 4.8773 21.2565C4.95166 21.2993 5.03372 21.3271 5.11881 21.3382C5.20389 21.3493 5.29032 21.3435 5.37317 21.3211L11.7706 19.6062C11.8535 19.5839 11.9401 19.5782 12.0252 19.5894C12.1104 19.6006 12.1925 19.6285 12.2669 19.6715L14.9836 21.2389C15.1067 21.3129 15.2036 21.4236 15.2607 21.5555C15.3179 21.6873 15.3324 21.8337 15.3023 21.9742C15.0941 23.0291 15.0954 24.1146 15.3062 25.169C15.3365 25.3098 15.3219 25.4566 15.2645 25.5887C15.2071 25.7208 15.1098 25.8316 14.9862 25.9056L12.2643 27.4756C12.1899 27.5186 12.1078 27.5465 12.0226 27.5577C11.9374 27.5689 11.8509 27.5632 11.7679 27.5409L5.37186 25.8273C5.28902 25.8049 5.20258 25.7991 5.1175 25.8102C5.03242 25.8213 4.95035 25.8491 4.876 25.8919C4.80164 25.9347 4.73645 25.9917 4.68415 26.0598C4.63186 26.1278 4.59348 26.2055 4.57121 26.2883L3.79407 29.1905C3.74941 29.3578 3.77303 29.536 3.85973 29.6859C3.94644 29.8358 4.08913 29.9452 4.25643 29.9899L9.06427 31.2777C9.14725 31.2998 9.22505 31.3381 9.29322 31.3904C9.36139 31.4426 9.41858 31.5078 9.46153 31.5821C9.50448 31.6565 9.53234 31.7386 9.54351 31.8238C9.55468 31.9089 9.54895 31.9954 9.52664 32.0784L8.2375 36.8849C8.21519 36.9678 8.20945 37.0543 8.22063 37.1395C8.2318 37.2246 8.25966 37.3068 8.3026 37.3811C8.34555 37.4555 8.40275 37.5207 8.47091 37.5729C8.53908 37.6251 8.61688 37.6634 8.69986 37.6855L11.6021 38.4627C11.7694 38.5073 11.9476 38.4837 12.0975 38.397C12.2474 38.3103 12.3567 38.1676 12.4014 38.0003L14.1164 31.6042C14.1611 31.4374 14.27 31.2952 14.4194 31.2085L17.1557 29.6281C17.2812 29.5585 17.4253 29.5298 17.5678 29.5459C17.7104 29.5621 17.8444 29.6223 17.9511 29.7182C18.7479 30.4104 19.6791 30.9512 20.7005 31.2947C20.8378 31.3386 20.9579 31.4245 21.0439 31.5402C21.1299 31.656 21.1774 31.7958 21.1799 31.9399V35.1086C21.18 35.1944 21.1633 35.2794 21.1305 35.3587C21.0978 35.4381 21.0498 35.5102 20.9892 35.5709L16.3054 40.2534C16.183 40.3758 16.1142 40.5419 16.1142 40.7151C16.1142 40.8883 16.183 41.0543 16.3054 41.1768L18.4292 43.3006C18.5516 43.423 18.7177 43.4918 18.8909 43.4918C19.0641 43.4918 19.2301 43.423 19.3526 43.3006L22.8739 39.7806C22.9964 39.6581 23.1625 39.5894 23.3356 39.5894C23.5088 39.5894 23.6749 39.6581 23.7973 39.7806L27.3173 43.3006C27.378 43.3614 27.4501 43.4096 27.5294 43.4426C27.6087 43.4755 27.6938 43.4924 27.7797 43.4924C27.8656 43.4924 27.9507 43.4755 28.03 43.4426C28.1093 43.4096 28.1814 43.3614 28.2421 43.3006L30.3658 41.1768C30.4883 41.0543 30.557 40.8883 30.557 40.7151C30.557 40.5419 30.4883 40.3758 30.3658 40.2534L25.6808 35.5696C25.5587 35.4472 25.4901 35.2814 25.4901 35.1086V31.919C25.4901 31.6251 25.686 31.3704 25.9642 31.2751C26.9626 30.93 27.8844 30.3942 28.6783 29.6973C28.785 29.6009 28.9192 29.5403 29.062 29.5239C29.2049 29.5075 29.3493 29.5361 29.475 29.6059L32.2506 31.2085H32.2519ZM23.3049 19.7198C22.8 19.7197 22.2999 19.8189 21.8333 20.012C21.3667 20.2051 20.9427 20.4882 20.5856 20.8451C20.2284 21.2021 19.945 21.6259 19.7516 22.0923C19.5582 22.5588 19.4586 23.0588 19.4584 23.5637C19.4582 24.0687 19.5575 24.5688 19.7506 25.0354C19.9437 25.5019 20.2268 25.9259 20.5837 26.2831C20.9407 26.6403 21.3645 26.9237 21.8309 27.1171C22.2974 27.3105 22.7974 27.4101 23.3023 27.4103C24.3223 27.4105 25.3006 27.0054 26.0219 26.2843C26.7433 25.5632 27.1487 24.585 27.1488 23.5651C27.149 22.5451 26.744 21.5668 26.0229 20.8454C25.3018 20.1241 24.3236 19.7187 23.3036 19.7185L23.3049 19.7198Z" fill="#757575"/>
</g>
<defs>
<linearGradient id="paint0_linear_75_133" x1="48.7781" y1="32.1894" x2="48.7781" y2="59.7747" gradientUnits="userSpaceOnUse">
<stop stop-color="#2E7AF5"/>
<stop offset="1" stop-color="#0B57D0"/>
</linearGradient>
</defs>
</svg>
