<svg width="64" height="64" viewBox="0 0 64 64" fill="none" xmlns="http://www.w3.org/2000/svg">
<g clip-path="url(#clip0_75_38)">
<path fill-rule="evenodd" clip-rule="evenodd" d="M47.4359 5.33334C45.1373 5.33334 42.9329 6.24643 41.3076 7.87174C39.6823 9.49706 38.7692 11.7015 38.7692 14V39.8107C37.47 41.054 36.4366 42.5479 35.7314 44.2021C35.0262 45.8564 34.6639 47.6364 34.6665 49.4347C34.6665 56.7987 40.6359 62.768 47.9999 62.768C55.3638 62.768 61.3332 56.7987 61.3332 49.4347C61.3353 47.6371 60.9728 45.8578 60.2676 44.2043C59.5625 42.5508 58.5293 41.0575 57.2305 39.8147V14C57.2305 11.7015 56.3174 9.49706 54.6921 7.87174C53.0668 6.24643 50.8624 5.33334 48.5639 5.33334H47.4359Z" fill="#ABABAB"/>
<path fill-rule="evenodd" clip-rule="evenodd" d="M48.0012 8.684C46.6751 8.684 45.4033 9.21078 44.4656 10.1485C43.528 11.0861 43.0012 12.3579 43.0012 13.684V41.6933C41.3255 42.7731 40.0445 44.3663 39.3495 46.2347C38.6546 48.1031 38.5832 50.1462 39.146 52.0585C39.7088 53.9709 40.8755 55.6496 42.4717 56.8438C44.0679 58.0379 46.0078 58.6832 48.0012 58.6832C49.9946 58.6832 51.9345 58.0379 53.5306 56.8438C55.1268 55.6496 56.2936 53.9709 56.8563 52.0585C57.4191 50.1462 57.3477 48.1031 56.6528 46.2347C55.9579 44.3663 54.6768 42.7731 53.0012 41.6933V13.6827C53.0012 12.3566 52.4744 11.0848 51.5367 10.1471C50.599 9.20945 49.3273 8.684 48.0012 8.684Z" fill="white"/>
<path d="M53.0015 50.3373C53.0015 47.5759 50.7629 45.3373 48.0015 45.3373C45.24 45.3373 43.0015 47.5759 43.0015 50.3373C43.0015 53.0988 45.24 55.3373 48.0015 55.3373C50.7629 55.3373 53.0015 53.0988 53.0015 50.3373Z" fill="#EA4335"/>
<path d="M48.0013 16H48C47.0184 16 46.2227 16.7957 46.2227 17.7773V46.2227C46.2227 47.2043 47.0184 48 48 48H48.0013C48.9829 48 49.7787 47.2043 49.7787 46.2227V17.7773C49.7787 16.7957 48.9829 16 48.0013 16Z" fill="#EA4335"/>
<path fill-rule="evenodd" clip-rule="evenodd" d="M33.2042 58.8933C31.3106 59.9199 29.1483 60.3429 27.0075 60.1056C24.8666 59.8682 22.8496 58.9818 21.2269 57.5653C19.4888 56.0486 17.3017 55.1429 15.0002 54.9867C12.4535 54.8136 10.0557 53.7237 8.25074 51.9188C6.44579 50.1138 5.3559 47.7161 5.18286 45.1693C5.02619 42.8677 4.12001 40.6806 2.60286 38.9427C0.924367 37.0195 -0.000488281 34.5533 -0.000488281 32.0007C-0.000488281 29.448 0.924367 26.9818 2.60286 25.0587C4.12001 23.3207 5.02619 21.1337 5.18286 18.832C5.3559 16.2853 6.44579 13.8875 8.25074 12.0826C10.0557 10.2776 12.4535 9.18772 15.0002 9.01467C17.3017 8.85838 19.4887 7.95267 21.2269 6.436C23.15 4.75751 25.6162 3.83266 28.1689 3.83266C30.7215 3.83266 33.1877 4.75751 35.1109 6.436C35.3935 6.68134 35.6869 6.912 35.9909 7.12534C35.303 8.68736 34.9492 10.3759 34.9522 12.0827V36.8267C32.0002 41.3787 30.8349 44.684 30.8349 50.2013C30.8349 53.3947 31.6335 56.372 33.2042 58.8933Z" fill="url(#paint0_radial_75_38)"/>
</g>
<defs>
<radialGradient id="paint0_radial_75_38" cx="0" cy="0" r="1" gradientUnits="userSpaceOnUse" gradientTransform="translate(47.3329 12.6659) rotate(130.956) scale(46.7856 62.9553)">
<stop offset="0.064" stop-color="#FFD323"/>
<stop offset="0.62" stop-color="#EA6A16"/>
<stop offset="1" stop-color="#EA4335"/>
</radialGradient>
<clipPath id="clip0_75_38">
<rect width="64" height="64" fill="white"/>
</clipPath>
</defs>
</svg>
