<svg width="64" height="64" viewBox="0 0 64 64" fill="none" xmlns="http://www.w3.org/2000/svg">
<path d="M45.168 9.01334C47.7152 9.18612 50.1134 10.2761 51.9187 12.0813C53.724 13.8866 54.8139 16.2848 54.9867 18.832C55.143 21.1335 56.0487 23.3205 57.5653 25.0587C59.2438 26.9819 60.1687 29.448 60.1687 32.0007C60.1687 34.5533 59.2438 37.0195 57.5653 38.9427C56.0487 40.6808 55.143 42.8678 54.9867 45.1693C54.8133 47.7162 53.7231 50.114 51.918 51.9189C50.1128 53.7238 47.7149 54.8137 45.168 54.9867C42.8665 55.143 40.6795 56.0487 38.9413 57.5653C37.0182 59.2438 34.552 60.1687 31.9993 60.1687C29.4467 60.1687 26.9805 59.2438 25.0573 57.5653C23.3192 56.0487 21.1322 55.143 18.8307 54.9867C16.2837 54.8136 13.8858 53.7235 12.0808 51.9183C10.2758 50.1131 9.18608 47.715 9.01334 45.168C8.85705 42.8665 7.95134 40.6795 6.43467 38.9413C4.75654 37.0183 3.83191 34.5523 3.83191 32C3.83191 29.4477 4.75654 26.9818 6.43467 25.0587C7.95134 23.3205 8.85705 21.1335 9.01334 18.832C9.18611 16.2848 10.276 13.8866 12.0813 12.0813C13.8866 10.2761 16.2848 9.18612 18.832 9.01334C21.1335 8.85705 23.3205 7.95134 25.0587 6.43468C26.9818 4.75618 29.448 3.83133 32.0007 3.83133C34.5533 3.83133 37.0195 4.75618 38.9427 6.43468C40.6808 7.95134 42.8665 8.85705 45.168 9.01334Z" fill="url(#paint0_radial_12_264)"/>
<defs>
<radialGradient id="paint0_radial_12_264" cx="0" cy="0" r="1" gradientUnits="userSpaceOnUse" gradientTransform="translate(25.3333 26) rotate(64.5367) scale(31.0125 31.0125)">
<stop offset="0.016" stop-color="#FFBB29"/>
<stop offset="0.531" stop-color="#FCB224"/>
<stop offset="0.99" stop-color="#E47100"/>
</radialGradient>
</defs>
</svg>
