<svg width="64" height="64" viewBox="0 0 64 64" fill="none" xmlns="http://www.w3.org/2000/svg">
<path d="M45.1681 9.01333C47.7153 9.18611 50.1136 10.276 51.9188 12.0813C53.7241 13.8866 54.814 16.2848 54.9868 18.832C55.1431 21.1335 56.0488 23.3205 57.5655 25.0587C59.244 26.9818 60.1688 29.448 60.1688 32.0007C60.1688 34.5533 59.244 37.0195 57.5655 38.9427C56.0488 40.6808 55.1431 42.8678 54.9868 45.1693C54.8134 47.7162 53.7233 50.114 51.9181 51.9189C50.1129 53.7238 47.715 54.8137 45.1681 54.9867C42.8666 55.143 40.6796 56.0487 38.9415 57.5653C37.0183 59.2438 34.5521 60.1687 31.9995 60.1687C29.4468 60.1687 26.9806 59.2438 25.0575 57.5653C23.3193 56.0487 21.1323 55.143 18.8308 54.9867C16.2839 54.8136 13.8859 53.7235 12.0809 51.9183C10.2759 50.1131 9.1862 47.715 9.01346 45.168C8.85717 42.8665 7.95146 40.6795 6.4348 38.9413C4.75667 37.0182 3.83203 34.5523 3.83203 32C3.83203 29.4477 4.75667 26.9818 6.4348 25.0587C7.95146 23.3205 8.85717 21.1335 9.01346 18.832C9.18624 16.2848 10.2762 13.8866 12.0814 12.0813C13.8867 10.276 16.285 9.18611 18.8321 9.01333C21.1336 8.85705 23.3207 7.95133 25.0588 6.43467C26.982 4.75618 29.4482 3.83132 32.0008 3.83132C34.5534 3.83132 37.0196 4.75618 38.9428 6.43467C40.6809 7.95133 42.8666 8.85705 45.1681 9.01333Z" fill="url(#paint0_radial_75_29)"/>
<defs>
<radialGradient id="paint0_radial_75_29" cx="0" cy="0" r="1" gradientUnits="userSpaceOnUse" gradientTransform="translate(25.3335 26) rotate(64.5367) scale(31.0125)">
<stop offset="0.016" stop-color="#FFBB29"/>
<stop offset="0.531" stop-color="#FCB224"/>
<stop offset="0.99" stop-color="#E47100"/>
</radialGradient>
</defs>
</svg>
