<svg width="48" height="48" viewBox="0 0 48 48" fill="none" xmlns="http://www.w3.org/2000/svg">
<mask id="mask0_12_283" style="mask-type:luminance" maskUnits="userSpaceOnUse" x="0" y="0" width="48" height="48">
<path d="M0.76123 0.899261H47.7816V47.9197H0.76123V0.899261Z" fill="white"/>
</mask>
<g mask="url(#mask0_12_283)">
<path d="M26.494 5.79428C27.9614 5.89391 29.343 6.52179 30.3831 7.56168C31.4232 8.60158 32.0513 9.98308 32.1512 11.4504C32.2414 12.7764 32.7633 14.0364 33.6372 15.0377C34.6042 16.1458 35.137 17.5667 35.137 19.0374C35.137 20.5081 34.6042 21.929 33.6372 23.0371C32.7633 24.0384 32.2414 25.2983 32.1512 26.6243C32.0515 28.0919 31.4235 29.4736 30.3834 30.5137C29.3433 31.5538 27.9616 32.1818 26.494 32.2815C25.1681 32.3716 23.9081 32.8936 22.9068 33.7675C21.7987 34.7345 20.3778 35.2672 18.9071 35.2672C17.4364 35.2672 16.0155 34.7345 14.9074 33.7675C13.9061 32.8936 12.6461 32.3716 11.3202 32.2815C9.8528 32.1816 8.4713 31.5535 7.4314 30.5134C6.39151 29.4733 5.76363 28.0917 5.664 26.6243C5.57382 25.2983 5.05187 24.0384 4.17796 23.0371C3.21101 21.929 2.67822 20.5081 2.67822 19.0374C2.67822 17.5667 3.21101 16.1458 4.17796 15.0377C5.05187 14.0364 5.57382 12.7764 5.664 11.4504C5.76386 9.98323 6.39183 8.60186 7.43171 7.56199C8.47158 6.52211 9.85295 5.89414 11.3202 5.79428C12.6461 5.7041 13.9061 5.18215 14.9074 4.30824C16.0155 3.34129 17.4364 2.8085 18.9071 2.8085C20.3778 2.8085 21.7987 3.34129 22.9068 4.30824C23.9081 5.18215 25.1681 5.7041 26.494 5.79428Z" fill="url(#paint0_radial_12_283)"/>
<path d="M24.433 45.4697H24.3879C21.4266 45.4697 19.0325 43.0864 19.0325 40.1544C19.0325 39.936 19.0452 39.7215 19.0717 39.5109C19.0903 39.3571 19.248 39.1837 19.5301 39.166C21.7303 39.0305 23.8236 38.17 25.4831 36.719C25.8396 36.4078 26.2883 36.222 26.7605 36.19C28.8965 36.0445 30.9294 35.2175 32.5605 33.8307C34.1915 32.4439 35.3346 30.5703 35.8217 28.4856C35.8834 28.223 36.0744 28.078 36.2508 28.0712C36.3556 28.0682 36.4614 28.0663 36.5662 28.0663C41.4112 28.0663 45.3326 31.9651 45.3326 36.768C45.3326 41.4573 41.5934 45.2855 36.9081 45.4638L36.7278 45.4697H24.433Z" fill="url(#paint1_radial_12_283)"/>
<path d="M25.4831 36.719C23.8236 38.17 21.7303 39.0305 19.5301 39.166C19.248 39.1837 19.0903 39.3571 19.0717 39.5109C19.0452 39.7215 19.0325 39.936 19.0325 40.1544C19.0325 43.0864 21.4266 45.4697 24.3879 45.4697H24.433H36.7278L36.9081 45.4638C41.5934 45.2855 45.3326 41.4573 45.3326 36.768C45.3326 31.9651 41.4112 28.0663 36.5662 28.0663C36.4614 28.0663 36.3556 28.0682 36.2508 28.0712C36.0744 28.078 35.8834 28.223 35.8217 28.4856C35.3346 30.5703 34.1915 32.4439 32.5605 33.8307C30.9294 35.2175 28.8965 36.0445 26.7605 36.19C26.2883 36.222 25.8396 36.4078 25.4831 36.719ZM25.4831 36.719L25.1618 36.3507" stroke="url(#paint2_linear_12_283)"/>
<path d="M25.4831 36.719C23.8236 38.17 21.7303 39.0305 19.5301 39.166C19.248 39.1837 19.0903 39.3571 19.0717 39.5109C19.0452 39.7215 19.0325 39.936 19.0325 40.1544C19.0325 43.0864 21.4266 45.4697 24.3879 45.4697H24.433H36.7278L36.9081 45.4638C41.5934 45.2855 45.3326 41.4573 45.3326 36.768C45.3326 31.9651 41.4112 28.0663 36.5662 28.0663C36.4614 28.0663 36.3556 28.0682 36.2508 28.0712C36.0744 28.078 35.8834 28.223 35.8217 28.4856C35.3346 30.5703 34.1915 32.4439 32.5605 33.8307C30.9294 35.2175 28.8965 36.0445 26.7605 36.19C26.2883 36.222 25.8396 36.4078 25.4831 36.719ZM25.4831 36.719L25.1618 36.3507" stroke="url(#paint3_linear_12_283)"/>
</g>
<defs>
<radialGradient id="paint0_radial_12_283" cx="0" cy="0" r="1" gradientUnits="userSpaceOnUse" gradientTransform="translate(15.0664 15.5806) rotate(64.537) scale(17.8681)">
<stop offset="0.016" stop-color="#FFBB29"/>
<stop offset="0.531" stop-color="#FCB224"/>
<stop offset="0.99" stop-color="#E47100"/>
</radialGradient>
<radialGradient id="paint1_radial_12_283" cx="0" cy="0" r="1" gradientUnits="userSpaceOnUse" gradientTransform="translate(41.2751 44.3961) rotate(-134.75) scale(21.3921 51.4607)">
<stop stop-color="#B4B4B4"/>
<stop offset="0.298" stop-color="#B4B4B4"/>
<stop offset="1" stop-color="#E3E3E3"/>
</radialGradient>
<linearGradient id="paint2_linear_12_283" x1="35.7404" y1="36.1753" x2="39.8919" y2="45.071" gradientUnits="userSpaceOnUse">
<stop stop-color="#80868B" stop-opacity="0"/>
<stop offset="1" stop-color="#80868B"/>
</linearGradient>
<linearGradient id="paint3_linear_12_283" x1="42.5603" y1="27.5765" x2="20.9143" y2="35.8785" gradientUnits="userSpaceOnUse">
<stop stop-color="#81878C"/>
<stop offset="1" stop-color="#C3C5C6" stop-opacity="0"/>
</linearGradient>
</defs>
</svg>
